STARTFONT 2.1
COMMENT $XFree86$
COMMENT ISO10646-1 extension by Markus Kuhn <mkuhn@acm.org>, 2001-03-20
COMMENT  (c) Copyright Bigelow & Holmes 1986, 1985. Lucida is a registered
COMMENT  trademark of Bigelow & Holmes. See LEGAL NOTICE file for terms 
COMMENT  of the license. 
COMMENT GRID 0010 0010 0200 0200
FONT -B&H-Lucida-Medium-R-Normal-Sans-10-100-75-75-P-58-ISO10646-1
SIZE 10 72 72
FONTBOUNDINGBOX 12 18 -1 -5
STARTPROPERTIES 22
COMMENT Begin LogicalFontDescription
FONTNAME_REGISTRY ""
FOUNDRY "B&H"
FAMILY_NAME "Lucida"
WEIGHT_NAME "Medium"
SLANT "R"
SETWIDTH_NAME "Normal"
ADD_STYLE_NAME "Sans"
PIXEL_SIZE 10
POINT_SIZE 100
RESOLUTION_X 75
RESOLUTION_Y 75
SPACING "P"
AVERAGE_WIDTH 58
CHARSET_REGISTRY "ISO10646"
CHARSET_ENCODING "1"
COMMENT END LogicalFontDescription
FONT_ASCENT 9
FONT_DESCENT 2
DEFAULT_CHAR 0
COPYRIGHT "Copyright Bigelow & Holmes 1986, 1985."
FACE_NAME "Lucida Sans"
X_HEIGHT 6
CAP_HEIGHT 7
ENDPROPERTIES
CHARS 756
STARTCHAR char0
ENCODING 0
SWIDTH 735 0
DWIDTH 7 0
BBX 5 7 1 0
BITMAP
A8
00
88
00
88
00
A8
ENDCHAR
STARTCHAR space
ENCODING 32
SWIDTH 316 0
DWIDTH 3 0
BBX 1 1 0 0
BITMAP
00
ENDCHAR
STARTCHAR exclam
ENCODING 33
SWIDTH 205 0
DWIDTH 3 0
BBX 1 7 1 0
BITMAP
80
80
80
80
00
80
80
ENDCHAR
STARTCHAR quotedbl
ENCODING 34
SWIDTH 373 0
DWIDTH 4 0
BBX 3 3 1 5
BITMAP
A0
A0
A0
ENDCHAR
STARTCHAR numbersign
ENCODING 35
SWIDTH 633 0
DWIDTH 6 0
BBX 5 7 1 0
BITMAP
50
50
D8
50
D8
50
50
ENDCHAR
STARTCHAR dollar
ENCODING 36
SWIDTH 633 0
DWIDTH 6 0
BBX 5 9 1 -1
BITMAP
20
78
A0
A0
70
28
28
F0
20
ENDCHAR
STARTCHAR percent
ENCODING 37
SWIDTH 669 0
DWIDTH 7 0
BBX 7 7 0 0
BITMAP
40
A4
48
10
24
4A
04
ENDCHAR
STARTCHAR ampersand
ENCODING 38
SWIDTH 697 0
DWIDTH 7 0
BBX 6 7 1 0
BITMAP
60
90
60
64
94
98
64
ENDCHAR
STARTCHAR quotesingle
ENCODING 39
SWIDTH 229 0
DWIDTH 2 0
BBX 1 3 1 5
BITMAP
80
80
80
ENDCHAR
STARTCHAR parenleft
ENCODING 40
SWIDTH 325 0
DWIDTH 4 0
BBX 2 9 1 -1
BITMAP
40
40
80
80
80
80
80
40
40
ENDCHAR
STARTCHAR parenright
ENCODING 41
SWIDTH 325 0
DWIDTH 4 0
BBX 2 9 1 -1
BITMAP
80
80
40
40
40
40
40
80
80
ENDCHAR
STARTCHAR asterisk
ENCODING 42
SWIDTH 482 0
DWIDTH 5 0
BBX 3 3 1 4
BITMAP
A0
40
A0
ENDCHAR
STARTCHAR plus
ENCODING 43
SWIDTH 633 0
DWIDTH 6 0
BBX 5 5 1 1
BITMAP
20
20
F8
20
20
ENDCHAR
STARTCHAR comma
ENCODING 44
SWIDTH 316 0
DWIDTH 2 0
BBX 2 4 0 -2
BITMAP
40
40
40
80
ENDCHAR
STARTCHAR hyphen
ENCODING 45
SWIDTH 325 0
DWIDTH 3 0
BBX 2 1 1 3
BITMAP
C0
ENDCHAR
STARTCHAR period
ENCODING 46
SWIDTH 316 0
DWIDTH 2 0
BBX 1 2 1 0
BITMAP
80
80
ENDCHAR
STARTCHAR slash
ENCODING 47
SWIDTH 494 0
DWIDTH 5 0
BBX 5 9 0 -1
BITMAP
08
08
10
10
20
40
40
80
80
ENDCHAR
STARTCHAR zero
ENCODING 48
SWIDTH 633 0
DWIDTH 6 0
BBX 4 7 1 0
BITMAP
60
90
90
90
90
90
60
ENDCHAR
STARTCHAR one
ENCODING 49
SWIDTH 633 0
DWIDTH 6 0
BBX 3 7 1 0
BITMAP
20
E0
20
20
20
20
20
ENDCHAR
STARTCHAR two
ENCODING 50
SWIDTH 633 0
DWIDTH 6 0
BBX 4 7 1 0
BITMAP
E0
10
10
20
40
80
F0
ENDCHAR
STARTCHAR three
ENCODING 51
SWIDTH 633 0
DWIDTH 6 0
BBX 4 7 1 0
BITMAP
E0
10
10
60
10
10
E0
ENDCHAR
STARTCHAR four
ENCODING 52
SWIDTH 633 0
DWIDTH 6 0
BBX 5 7 1 0
BITMAP
10
30
50
90
F8
10
10
ENDCHAR
STARTCHAR five
ENCODING 53
SWIDTH 633 0
DWIDTH 6 0
BBX 4 7 1 0
BITMAP
F0
80
80
E0
10
10
E0
ENDCHAR
STARTCHAR six
ENCODING 54
SWIDTH 633 0
DWIDTH 6 0
BBX 4 7 1 0
BITMAP
70
80
80
E0
90
90
60
ENDCHAR
STARTCHAR seven
ENCODING 55
SWIDTH 633 0
DWIDTH 6 0
BBX 4 7 1 0
BITMAP
F0
10
20
20
40
40
40
ENDCHAR
STARTCHAR eight
ENCODING 56
SWIDTH 633 0
DWIDTH 6 0
BBX 4 7 1 0
BITMAP
60
90
90
60
90
90
60
ENDCHAR
STARTCHAR nine
ENCODING 57
SWIDTH 633 0
DWIDTH 6 0
BBX 4 7 1 0
BITMAP
60
90
90
70
10
10
E0
ENDCHAR
STARTCHAR colon
ENCODING 58
SWIDTH 316 0
DWIDTH 2 0
BBX 1 6 1 0
BITMAP
80
80
00
00
80
80
ENDCHAR
STARTCHAR semicolon
ENCODING 59
SWIDTH 316 0
DWIDTH 2 0
BBX 2 8 0 -2
BITMAP
40
40
00
00
40
40
40
80
ENDCHAR
STARTCHAR less
ENCODING 60
SWIDTH 633 0
DWIDTH 6 0
BBX 5 5 0 1
BITMAP
18
60
80
60
18
ENDCHAR
STARTCHAR equal
ENCODING 61
SWIDTH 633 0
DWIDTH 6 0
BBX 5 3 1 2
BITMAP
F8
00
F8
ENDCHAR
STARTCHAR greater
ENCODING 62
SWIDTH 633 0
DWIDTH 6 0
BBX 5 5 1 1
BITMAP
C0
30
08
30
C0
ENDCHAR
STARTCHAR question
ENCODING 63
SWIDTH 422 0
DWIDTH 5 0
BBX 4 7 1 0
BITMAP
E0
10
10
60
00
40
40
ENDCHAR
STARTCHAR at
ENCODING 64
SWIDTH 858 0
DWIDTH 9 0
BBX 7 7 1 0
BITMAP
38
44
9C
A4
9E
40
3C
ENDCHAR
STARTCHAR A
ENCODING 65
SWIDTH 690 0
DWIDTH 7 0
BBX 5 7 1 0
BITMAP
20
20
50
50
F8
88
88
ENDCHAR
STARTCHAR B
ENCODING 66
SWIDTH 575 0
DWIDTH 6 0
BBX 4 7 1 0
BITMAP
E0
90
90
E0
90
90
E0
ENDCHAR
STARTCHAR C
ENCODING 67
SWIDTH 692 0
DWIDTH 7 0
BBX 5 7 1 0
BITMAP
38
40
80
80
80
40
38
ENDCHAR
STARTCHAR D
ENCODING 68
SWIDTH 749 0
DWIDTH 8 0
BBX 6 7 1 0
BITMAP
F0
88
84
84
84
88
F0
ENDCHAR
STARTCHAR E
ENCODING 69
SWIDTH 542 0
DWIDTH 6 0
BBX 4 7 1 0
BITMAP
F0
80
80
E0
80
80
F0
ENDCHAR
STARTCHAR F
ENCODING 70
SWIDTH 536 0
DWIDTH 5 0
BBX 4 7 1 0
BITMAP
F0
80
80
E0
80
80
80
ENDCHAR
STARTCHAR G
ENCODING 71
SWIDTH 723 0
DWIDTH 7 0
BBX 5 7 1 0
BITMAP
38
40
80
80
88
48
38
ENDCHAR
STARTCHAR H
ENCODING 72
SWIDTH 735 0
DWIDTH 7 0
BBX 5 7 1 0
BITMAP
88
88
88
F8
88
88
88
ENDCHAR
STARTCHAR I
ENCODING 73
SWIDTH 288 0
DWIDTH 3 0
BBX 1 7 1 0
BITMAP
80
80
80
80
80
80
80
ENDCHAR
STARTCHAR J
ENCODING 74
SWIDTH 311 0
DWIDTH 4 0
BBX 3 9 0 -2
BITMAP
20
20
20
20
20
20
20
20
C0
ENDCHAR
STARTCHAR K
ENCODING 75
SWIDTH 653 0
DWIDTH 7 0
BBX 5 7 1 0
BITMAP
88
90
A0
C0
A0
90
88
ENDCHAR
STARTCHAR L
ENCODING 76
SWIDTH 533 0
DWIDTH 5 0
BBX 4 7 1 0
BITMAP
80
80
80
80
80
80
F0
ENDCHAR
STARTCHAR M
ENCODING 77
SWIDTH 861 0
DWIDTH 9 0
BBX 7 7 1 0
BITMAP
C6
C6
AA
BA
92
92
82
ENDCHAR
STARTCHAR N
ENCODING 78
SWIDTH 741 0
DWIDTH 8 0
BBX 6 7 1 0
BITMAP
84
C4
A4
94
94
8C
84
ENDCHAR
STARTCHAR O
ENCODING 79
SWIDTH 777 0
DWIDTH 8 0
BBX 6 7 1 0
BITMAP
30
48
84
84
84
48
30
ENDCHAR
STARTCHAR P
ENCODING 80
SWIDTH 553 0
DWIDTH 6 0
BBX 4 7 1 0
BITMAP
E0
90
90
E0
80
80
80
ENDCHAR
STARTCHAR Q
ENCODING 81
SWIDTH 777 0
DWIDTH 8 0
BBX 6 9 1 -2
BITMAP
30
48
84
84
84
48
30
08
04
ENDCHAR
STARTCHAR R
ENCODING 82
SWIDTH 633 0
DWIDTH 6 0
BBX 5 7 1 0
BITMAP
E0
90
90
E0
A0
90
88
ENDCHAR
STARTCHAR S
ENCODING 83
SWIDTH 539 0
DWIDTH 6 0
BBX 4 7 1 0
BITMAP
70
80
80
60
10
10
E0
ENDCHAR
STARTCHAR T
ENCODING 84
SWIDTH 633 0
DWIDTH 7 0
BBX 5 7 1 0
BITMAP
F8
20
20
20
20
20
20
ENDCHAR
STARTCHAR U
ENCODING 85
SWIDTH 693 0
DWIDTH 7 0
BBX 5 7 1 0
BITMAP
88
88
88
88
88
88
70
ENDCHAR
STARTCHAR V
ENCODING 86
SWIDTH 654 0
DWIDTH 7 0
BBX 5 7 1 0
BITMAP
88
88
88
50
50
20
20
ENDCHAR
STARTCHAR W
ENCODING 87
SWIDTH 855 0
DWIDTH 9 0
BBX 7 7 1 0
BITMAP
82
92
92
AA
44
44
44
ENDCHAR
STARTCHAR X
ENCODING 88
SWIDTH 626 0
DWIDTH 7 0
BBX 5 7 1 0
BITMAP
88
88
50
20
50
88
88
ENDCHAR
STARTCHAR Y
ENCODING 89
SWIDTH 623 0
DWIDTH 7 0
BBX 5 7 1 0
BITMAP
88
88
50
20
20
20
20
ENDCHAR
STARTCHAR Z
ENCODING 90
SWIDTH 605 0
DWIDTH 6 0
BBX 4 7 1 0
BITMAP
F0
10
20
60
40
80
F0
ENDCHAR
STARTCHAR bracketleft
ENCODING 91
SWIDTH 325 0
DWIDTH 4 0
BBX 2 9 1 -1
BITMAP
C0
80
80
80
80
80
80
80
C0
ENDCHAR
STARTCHAR backslash
ENCODING 92
SWIDTH 494 0
DWIDTH 5 0
BBX 5 9 0 -1
BITMAP
80
80
40
40
20
10
10
08
08
ENDCHAR
STARTCHAR bracketright
ENCODING 93
SWIDTH 325 0
DWIDTH 4 0
BBX 2 9 1 -1
BITMAP
C0
40
40
40
40
40
40
40
C0
ENDCHAR
STARTCHAR asciicircum
ENCODING 94
SWIDTH 633 0
DWIDTH 6 0
BBX 5 6 1 1
BITMAP
20
20
50
50
88
88
ENDCHAR
STARTCHAR underscore
ENCODING 95
SWIDTH 500 0
DWIDTH 7 0
BBX 5 1 1 -1
BITMAP
F8
ENDCHAR
STARTCHAR grave
ENCODING 96
SWIDTH 614 0
DWIDTH 6 0
BBX 2 2 2 7
BITMAP
80
40
ENDCHAR
STARTCHAR a
ENCODING 97
SWIDTH 552 0
DWIDTH 6 0
BBX 5 6 1 0
BITMAP
60
10
70
90
90
68
ENDCHAR
STARTCHAR b
ENCODING 98
SWIDTH 630 0
DWIDTH 6 0
BBX 4 8 1 0
BITMAP
80
80
A0
D0
90
90
90
E0
ENDCHAR
STARTCHAR c
ENCODING 99
SWIDTH 518 0
DWIDTH 6 0
BBX 4 6 1 0
BITMAP
70
80
80
80
80
70
ENDCHAR
STARTCHAR d
ENCODING 100
SWIDTH 630 0
DWIDTH 6 0
BBX 4 8 1 0
BITMAP
10
10
70
90
90
90
B0
50
ENDCHAR
STARTCHAR e
ENCODING 101
SWIDTH 557 0
DWIDTH 6 0
BBX 4 6 1 0
BITMAP
60
90
F0
80
80
70
ENDCHAR
STARTCHAR f
ENCODING 102
SWIDTH 367 0
DWIDTH 4 0
BBX 4 8 0 0
BITMAP
30
40
F0
40
40
40
40
40
ENDCHAR
STARTCHAR g
ENCODING 103
SWIDTH 623 0
DWIDTH 6 0
BBX 4 8 1 -2
BITMAP
70
90
90
90
B0
50
10
60
ENDCHAR
STARTCHAR h
ENCODING 104
SWIDTH 620 0
DWIDTH 6 0
BBX 4 8 1 0
BITMAP
80
80
A0
D0
90
90
90
90
ENDCHAR
STARTCHAR i
ENCODING 105
SWIDTH 289 0
DWIDTH 3 0
BBX 1 8 1 0
BITMAP
80
00
80
80
80
80
80
80
ENDCHAR
STARTCHAR j
ENCODING 106
SWIDTH 304 0
DWIDTH 3 0
BBX 2 10 0 -2
BITMAP
40
00
40
40
40
40
40
40
40
80
ENDCHAR
STARTCHAR k
ENCODING 107
SWIDTH 585 0
DWIDTH 6 0
BBX 5 8 1 0
BITMAP
80
80
90
A0
C0
A0
90
88
ENDCHAR
STARTCHAR l
ENCODING 108
SWIDTH 289 0
DWIDTH 3 0
BBX 1 8 1 0
BITMAP
80
80
80
80
80
80
80
80
ENDCHAR
STARTCHAR m
ENCODING 109
SWIDTH 934 0
DWIDTH 9 0
BBX 7 6 1 0
BITMAP
A4
DA
92
92
92
92
ENDCHAR
STARTCHAR n
ENCODING 110
SWIDTH 620 0
DWIDTH 6 0
BBX 4 6 1 0
BITMAP
A0
D0
90
90
90
90
ENDCHAR
STARTCHAR o
ENCODING 111
SWIDTH 614 0
DWIDTH 6 0
BBX 4 6 1 0
BITMAP
60
90
90
90
90
60
ENDCHAR
STARTCHAR p
ENCODING 112
SWIDTH 630 0
DWIDTH 6 0
BBX 4 8 1 -2
BITMAP
A0
D0
90
90
90
E0
80
80
ENDCHAR
STARTCHAR q
ENCODING 113
SWIDTH 630 0
DWIDTH 6 0
BBX 4 8 1 -2
BITMAP
70
90
90
90
B0
50
10
10
ENDCHAR
STARTCHAR r
ENCODING 114
SWIDTH 409 0
DWIDTH 5 0
BBX 3 6 1 0
BITMAP
A0
E0
80
80
80
80
ENDCHAR
STARTCHAR s
ENCODING 115
SWIDTH 510 0
DWIDTH 5 0
BBX 3 6 1 0
BITMAP
60
80
C0
60
20
C0
ENDCHAR
STARTCHAR t
ENCODING 116
SWIDTH 374 0
DWIDTH 4 0
BBX 4 7 0 0
BITMAP
40
F0
40
40
40
40
30
ENDCHAR
STARTCHAR u
ENCODING 117
SWIDTH 620 0
DWIDTH 6 0
BBX 4 6 1 0
BITMAP
90
90
90
90
B0
50
ENDCHAR
STARTCHAR v
ENCODING 118
SWIDTH 572 0
DWIDTH 6 0
BBX 4 6 1 0
BITMAP
90
90
90
90
60
60
ENDCHAR
STARTCHAR w
ENCODING 119
SWIDTH 840 0
DWIDTH 9 0
BBX 7 6 1 0
BITMAP
82
92
92
AA
44
44
ENDCHAR
STARTCHAR x
ENCODING 120
SWIDTH 613 0
DWIDTH 6 0
BBX 4 6 1 0
BITMAP
90
90
60
60
90
90
ENDCHAR
STARTCHAR y
ENCODING 121
SWIDTH 568 0
DWIDTH 6 0
BBX 4 8 1 -2
BITMAP
90
90
90
90
60
60
40
C0
ENDCHAR
STARTCHAR z
ENCODING 122
SWIDTH 573 0
DWIDTH 6 0
BBX 4 6 1 0
BITMAP
F0
10
20
40
80
F0
ENDCHAR
STARTCHAR braceleft
ENCODING 123
SWIDTH 325 0
DWIDTH 4 0
BBX 3 9 0 -1
BITMAP
20
40
40
40
80
40
40
40
20
ENDCHAR
STARTCHAR bar
ENCODING 124
SWIDTH 265 0
DWIDTH 3 0
BBX 1 9 1 -1
BITMAP
80
80
80
80
80
80
80
80
80
ENDCHAR
STARTCHAR braceright
ENCODING 125
SWIDTH 325 0
DWIDTH 4 0
BBX 3 9 1 -1
BITMAP
80
40
40
40
20
40
40
40
80
ENDCHAR
STARTCHAR asciitilde
ENCODING 126
SWIDTH 633 0
DWIDTH 7 0
BBX 6 2 1 3
BITMAP
64
98
ENDCHAR
STARTCHAR space
ENCODING 160
SWIDTH 316 0
DWIDTH 3 0
BBX 1 1 0 0
BITMAP
00
ENDCHAR
STARTCHAR exclamdown
ENCODING 161
SWIDTH 205 0
DWIDTH 3 0
BBX 1 7 1 -1
BITMAP
80
80
00
80
80
80
80
ENDCHAR
STARTCHAR cent
ENCODING 162
SWIDTH 633 0
DWIDTH 6 0
BBX 5 7 1 0
BITMAP
20
78
A0
A0
A0
78
20
ENDCHAR
STARTCHAR sterling
ENCODING 163
SWIDTH 633 0
DWIDTH 6 0
BBX 5 7 1 0
BITMAP
38
40
40
F0
40
40
F8
ENDCHAR
STARTCHAR currency
ENCODING 164
SWIDTH 633 0
DWIDTH 6 0
BBX 6 7 0 0
BITMAP
84
78
48
48
48
78
84
ENDCHAR
STARTCHAR yen
ENCODING 165
SWIDTH 633 0
DWIDTH 6 0
BBX 5 7 1 0
BITMAP
88
88
50
20
F8
20
20
ENDCHAR
STARTCHAR brokenbar
ENCODING 166
SWIDTH 265 0
DWIDTH 3 0
BBX 1 9 1 -1
BITMAP
80
80
80
80
00
80
80
80
80
ENDCHAR
STARTCHAR section
ENCODING 167
SWIDTH 633 0
DWIDTH 6 0
BBX 5 8 1 -1
BITMAP
78
C0
60
90
48
30
18
F0
ENDCHAR
STARTCHAR dieresis
ENCODING 168
SWIDTH 614 0
DWIDTH 6 0
BBX 4 1 1 7
BITMAP
90
ENDCHAR
STARTCHAR copyright
ENCODING 169
SWIDTH 855 0
DWIDTH 9 0
BBX 7 7 1 0
BITMAP
38
44
BA
A2
BA
44
38
ENDCHAR
STARTCHAR ordfeminine
ENCODING 170
SWIDTH 422 0
DWIDTH 5 0
BBX 4 5 1 2
BITMAP
C0
20
60
A0
50
ENDCHAR
STARTCHAR guillemotleft
ENCODING 171
SWIDTH 524 0
DWIDTH 6 0
BBX 5 3 0 2
BITMAP
48
90
48
ENDCHAR
STARTCHAR logicalnot
ENCODING 172
SWIDTH 633 0
DWIDTH 6 0
BBX 5 3 1 1
BITMAP
F8
08
08
ENDCHAR
STARTCHAR hyphen
ENCODING 173
SWIDTH 325 0
DWIDTH 3 0
BBX 2 1 1 3
BITMAP
C0
ENDCHAR
STARTCHAR registered
ENCODING 174
SWIDTH 633 0
DWIDTH 7 0
BBX 7 7 0 0
BITMAP
38
44
BA
B2
AA
44
38
ENDCHAR
STARTCHAR macron
ENCODING 175
SWIDTH 614 0
DWIDTH 6 0
BBX 3 1 2 7
BITMAP
E0
ENDCHAR
STARTCHAR degree
ENCODING 176
SWIDTH 277 0
DWIDTH 3 0
BBX 3 3 0 4
BITMAP
40
A0
40
ENDCHAR
STARTCHAR plusminus
ENCODING 177
SWIDTH 633 0
DWIDTH 6 0
BBX 5 5 1 1
BITMAP
20
F8
20
00
F8
ENDCHAR
STARTCHAR twosuperior
ENCODING 178
SWIDTH 422 0
DWIDTH 5 0
BBX 4 5 1 2
BITMAP
E0
10
60
80
F0
ENDCHAR
STARTCHAR threesuperior
ENCODING 179
SWIDTH 422 0
DWIDTH 5 0
BBX 3 5 1 2
BITMAP
C0
20
C0
20
C0
ENDCHAR
STARTCHAR acute
ENCODING 180
SWIDTH 614 0
DWIDTH 6 0
BBX 2 2 2 7
BITMAP
40
80
ENDCHAR
STARTCHAR mu
ENCODING 181
SWIDTH 627 0
DWIDTH 6 0
BBX 4 8 1 -2
BITMAP
90
90
90
90
B0
D0
80
80
ENDCHAR
STARTCHAR paragraph
ENCODING 182
SWIDTH 633 0
DWIDTH 6 0
BBX 5 8 0 -1
BITMAP
78
E8
E8
68
28
28
28
28
ENDCHAR
STARTCHAR periodcentered
ENCODING 183
SWIDTH 316 0
DWIDTH 7 0
BBX 2 2 3 2
BITMAP
C0
C0
ENDCHAR
STARTCHAR cedilla
ENCODING 184
SWIDTH 614 0
DWIDTH 6 0
BBX 3 2 1 -2
BITMAP
20
C0
ENDCHAR
STARTCHAR onesuperior
ENCODING 185
SWIDTH 422 0
DWIDTH 5 0
BBX 3 5 0 2
BITMAP
20
E0
20
20
20
ENDCHAR
STARTCHAR ordmasculine
ENCODING 186
SWIDTH 422 0
DWIDTH 5 0
BBX 4 5 1 2
BITMAP
60
90
90
90
60
ENDCHAR
STARTCHAR guillemotright
ENCODING 187
SWIDTH 524 0
DWIDTH 6 0
BBX 5 3 1 2
BITMAP
90
48
90
ENDCHAR
STARTCHAR onequarter
ENCODING 188
SWIDTH 801 0
DWIDTH 9 0
BBX 9 7 0 0
BITMAP
4200
C400
4800
5100
1500
2780
4100
ENDCHAR
STARTCHAR onehalf
ENCODING 189
SWIDTH 801 0
DWIDTH 9 0
BBX 9 7 0 0
BITMAP
C200
4400
4800
4B00
1080
2100
0380
ENDCHAR
STARTCHAR threequarters
ENCODING 190
SWIDTH 873 0
DWIDTH 9 0
BBX 9 7 0 0
BITMAP
E200
4400
2800
C900
1500
2780
4100
ENDCHAR
STARTCHAR questiondown
ENCODING 191
SWIDTH 422 0
DWIDTH 4 0
BBX 4 7 0 -1
BITMAP
20
20
00
60
80
80
70
ENDCHAR
STARTCHAR Agrave
ENCODING 192
SWIDTH 690 0
DWIDTH 7 0
BBX 5 9 1 0
BITMAP
40
20
00
20
50
50
F8
88
88
ENDCHAR
STARTCHAR Aacute
ENCODING 193
SWIDTH 690 0
DWIDTH 7 0
BBX 5 9 1 0
BITMAP
10
20
00
20
50
50
F8
88
88
ENDCHAR
STARTCHAR Acircumflex
ENCODING 194
SWIDTH 690 0
DWIDTH 7 0
BBX 5 9 1 0
BITMAP
20
50
00
20
50
50
F8
88
88
ENDCHAR
STARTCHAR Atilde
ENCODING 195
SWIDTH 690 0
DWIDTH 7 0
BBX 5 9 1 0
BITMAP
68
B0
00
20
50
50
F8
88
88
ENDCHAR
STARTCHAR Adieresis
ENCODING 196
SWIDTH 690 0
DWIDTH 7 0
BBX 5 8 1 0
BITMAP
50
00
20
50
50
F8
88
88
ENDCHAR
STARTCHAR Aring
ENCODING 197
SWIDTH 690 0
DWIDTH 7 0
BBX 5 9 1 0
BITMAP
20
50
20
20
50
50
F8
88
88
ENDCHAR
STARTCHAR AE
ENCODING 198
SWIDTH 907 0
DWIDTH 9 0
BBX 7 7 1 0
BITMAP
3E
30
50
5C
F0
90
9E
ENDCHAR
STARTCHAR Ccedilla
ENCODING 199
SWIDTH 692 0
DWIDTH 7 0
BBX 5 9 1 -2
BITMAP
38
40
80
80
80
40
38
10
60
ENDCHAR
STARTCHAR Egrave
ENCODING 200
SWIDTH 542 0
DWIDTH 6 0
BBX 4 9 1 0
BITMAP
40
20
00
F0
80
E0
80
80
F0
ENDCHAR
STARTCHAR Eacute
ENCODING 201
SWIDTH 542 0
DWIDTH 6 0
BBX 4 9 1 0
BITMAP
20
40
00
F0
80
E0
80
80
F0
ENDCHAR
STARTCHAR Ecircumflex
ENCODING 202
SWIDTH 542 0
DWIDTH 6 0
BBX 4 9 1 0
BITMAP
40
A0
00
F0
80
E0
80
80
F0
ENDCHAR
STARTCHAR Edieresis
ENCODING 203
SWIDTH 542 0
DWIDTH 6 0
BBX 4 8 1 0
BITMAP
90
00
F0
80
E0
80
80
F0
ENDCHAR
STARTCHAR Igrave
ENCODING 204
SWIDTH 288 0
DWIDTH 3 0
BBX 2 9 0 0
BITMAP
80
40
00
40
40
40
40
40
40
ENDCHAR
STARTCHAR Iacute
ENCODING 205
SWIDTH 288 0
DWIDTH 3 0
BBX 2 9 1 0
BITMAP
40
80
00
80
80
80
80
80
80
ENDCHAR
STARTCHAR Icircumflex
ENCODING 206
SWIDTH 288 0
DWIDTH 3 0
BBX 3 9 0 0
BITMAP
40
A0
00
40
40
40
40
40
40
ENDCHAR
STARTCHAR Idieresis
ENCODING 207
SWIDTH 288 0
DWIDTH 3 0
BBX 3 8 0 0
BITMAP
A0
00
40
40
40
40
40
40
ENDCHAR
STARTCHAR Eth
ENCODING 208
SWIDTH 749 0
DWIDTH 8 0
BBX 7 7 0 0
BITMAP
78
44
42
F2
42
44
78
ENDCHAR
STARTCHAR Ntilde
ENCODING 209
SWIDTH 741 0
DWIDTH 8 0
BBX 6 9 1 0
BITMAP
34
58
00
84
C4
A4
94
8C
84
ENDCHAR
STARTCHAR Ograve
ENCODING 210
SWIDTH 777 0
DWIDTH 8 0
BBX 6 9 1 0
BITMAP
20
10
00
30
48
84
84
48
30
ENDCHAR
STARTCHAR Oacute
ENCODING 211
SWIDTH 777 0
DWIDTH 8 0
BBX 6 9 1 0
BITMAP
10
20
00
30
48
84
84
48
30
ENDCHAR
STARTCHAR Ocircumflex
ENCODING 212
SWIDTH 777 0
DWIDTH 8 0
BBX 6 9 1 0
BITMAP
20
50
00
30
48
84
84
48
30
ENDCHAR
STARTCHAR Otilde
ENCODING 213
SWIDTH 777 0
DWIDTH 8 0
BBX 6 9 1 0
BITMAP
34
58
00
30
48
84
84
48
30
ENDCHAR
STARTCHAR Odieresis
ENCODING 214
SWIDTH 777 0
DWIDTH 8 0
BBX 6 8 1 0
BITMAP
48
00
30
48
84
84
48
30
ENDCHAR
STARTCHAR multiply
ENCODING 215
SWIDTH 633 0
DWIDTH 6 0
BBX 5 5 1 1
BITMAP
88
50
20
50
88
ENDCHAR
STARTCHAR Oslash
ENCODING 216
SWIDTH 777 0
DWIDTH 8 0
BBX 6 7 1 0
BITMAP
34
48
94
94
A4
48
B0
ENDCHAR
STARTCHAR Ugrave
ENCODING 217
SWIDTH 693 0
DWIDTH 7 0
BBX 5 9 1 0
BITMAP
20
10
00
88
88
88
88
88
70
ENDCHAR
STARTCHAR Uacute
ENCODING 218
SWIDTH 693 0
DWIDTH 7 0
BBX 5 9 1 0
BITMAP
10
20
00
88
88
88
88
88
70
ENDCHAR
STARTCHAR Ucircumflex
ENCODING 219
SWIDTH 693 0
DWIDTH 7 0
BBX 5 9 1 0
BITMAP
20
50
00
88
88
88
88
88
70
ENDCHAR
STARTCHAR Udieresis
ENCODING 220
SWIDTH 693 0
DWIDTH 7 0
BBX 5 8 1 0
BITMAP
90
00
88
88
88
88
88
70
ENDCHAR
STARTCHAR Yacute
ENCODING 221
SWIDTH 623 0
DWIDTH 7 0
BBX 5 9 1 0
BITMAP
20
50
00
88
88
50
20
20
20
ENDCHAR
STARTCHAR Thorn
ENCODING 222
SWIDTH 553 0
DWIDTH 6 0
BBX 4 7 1 0
BITMAP
80
80
E0
90
E0
80
80
ENDCHAR
STARTCHAR germandbls
ENCODING 223
SWIDTH 598 0
DWIDTH 6 0
BBX 5 8 1 0
BITMAP
60
90
90
A0
90
88
88
90
ENDCHAR
STARTCHAR agrave
ENCODING 224
SWIDTH 552 0
DWIDTH 6 0
BBX 5 9 1 0
BITMAP
40
20
00
60
10
70
90
90
68
ENDCHAR
STARTCHAR aacute
ENCODING 225
SWIDTH 552 0
DWIDTH 6 0
BBX 5 9 1 0
BITMAP
10
20
00
60
10
70
90
90
68
ENDCHAR
STARTCHAR acircumflex
ENCODING 226
SWIDTH 552 0
DWIDTH 6 0
BBX 5 9 1 0
BITMAP
20
50
00
60
10
70
90
90
68
ENDCHAR
STARTCHAR atilde
ENCODING 227
SWIDTH 552 0
DWIDTH 6 0
BBX 6 9 0 0
BITMAP
68
B0
00
30
08
38
48
48
34
ENDCHAR
STARTCHAR adieresis
ENCODING 228
SWIDTH 552 0
DWIDTH 6 0
BBX 5 8 1 0
BITMAP
90
00
60
10
70
90
90
68
ENDCHAR
STARTCHAR aring
ENCODING 229
SWIDTH 552 0
DWIDTH 6 0
BBX 5 9 1 0
BITMAP
20
50
20
60
10
70
90
90
68
ENDCHAR
STARTCHAR ae
ENCODING 230
SWIDTH 853 0
DWIDTH 9 0
BBX 7 6 1 0
BITMAP
6C
12
7E
90
90
6E
ENDCHAR
STARTCHAR ccedilla
ENCODING 231
SWIDTH 518 0
DWIDTH 6 0
BBX 4 8 1 -2
BITMAP
70
80
80
80
80
70
20
C0
ENDCHAR
STARTCHAR egrave
ENCODING 232
SWIDTH 557 0
DWIDTH 6 0
BBX 4 9 1 0
BITMAP
40
20
00
60
90
F0
80
80
70
ENDCHAR
STARTCHAR eacute
ENCODING 233
SWIDTH 557 0
DWIDTH 6 0
BBX 4 9 1 0
BITMAP
20
40
00
60
90
F0
80
80
70
ENDCHAR
STARTCHAR ecircumflex
ENCODING 234
SWIDTH 557 0
DWIDTH 6 0
BBX 4 9 1 0
BITMAP
20
50
00
60
90
F0
80
80
70
ENDCHAR
STARTCHAR edieresis
ENCODING 235
SWIDTH 557 0
DWIDTH 6 0
BBX 4 8 1 0
BITMAP
90
00
60
90
F0
80
80
70
ENDCHAR
STARTCHAR igrave
ENCODING 236
SWIDTH 289 0
DWIDTH 3 0
BBX 2 9 0 0
BITMAP
80
40
00
40
40
40
40
40
40
ENDCHAR
STARTCHAR iacute
ENCODING 237
SWIDTH 289 0
DWIDTH 3 0
BBX 2 9 1 0
BITMAP
40
80
00
80
80
80
80
80
80
ENDCHAR
STARTCHAR icircumflex
ENCODING 238
SWIDTH 289 0
DWIDTH 3 0
BBX 3 9 0 0
BITMAP
40
A0
00
40
40
40
40
40
40
ENDCHAR
STARTCHAR idieresis
ENCODING 239
SWIDTH 289 0
DWIDTH 3 0
BBX 3 8 0 0
BITMAP
A0
00
40
40
40
40
40
40
ENDCHAR
STARTCHAR eth
ENCODING 240
SWIDTH 602 0
DWIDTH 6 0
BBX 5 8 1 0
BITMAP
20
78
10
70
90
90
90
60
ENDCHAR
STARTCHAR ntilde
ENCODING 241
SWIDTH 620 0
DWIDTH 6 0
BBX 5 9 1 0
BITMAP
68
B0
00
A0
D0
90
90
90
90
ENDCHAR
STARTCHAR ograve
ENCODING 242
SWIDTH 614 0
DWIDTH 6 0
BBX 4 9 1 0
BITMAP
40
20
00
60
90
90
90
90
60
ENDCHAR
STARTCHAR oacute
ENCODING 243
SWIDTH 614 0
DWIDTH 6 0
BBX 4 9 1 0
BITMAP
20
40
00
60
90
90
90
90
60
ENDCHAR
STARTCHAR ocircumflex
ENCODING 244
SWIDTH 614 0
DWIDTH 6 0
BBX 4 9 1 0
BITMAP
40
A0
00
60
90
90
90
90
60
ENDCHAR
STARTCHAR otilde
ENCODING 245
SWIDTH 614 0
DWIDTH 6 0
BBX 5 9 0 0
BITMAP
68
B0
00
30
48
48
48
48
30
ENDCHAR
STARTCHAR odieresis
ENCODING 246
SWIDTH 614 0
DWIDTH 6 0
BBX 4 8 1 0
BITMAP
90
00
60
90
90
90
90
60
ENDCHAR
STARTCHAR divide
ENCODING 247
SWIDTH 633 0
DWIDTH 6 0
BBX 5 5 1 1
BITMAP
20
00
F8
00
20
ENDCHAR
STARTCHAR oslash
ENCODING 248
SWIDTH 614 0
DWIDTH 6 0
BBX 6 6 0 0
BITMAP
34
48
58
68
48
B0
ENDCHAR
STARTCHAR ugrave
ENCODING 249
SWIDTH 620 0
DWIDTH 6 0
BBX 4 9 1 0
BITMAP
40
20
00
90
90
90
90
B0
50
ENDCHAR
STARTCHAR uacute
ENCODING 250
SWIDTH 620 0
DWIDTH 6 0
BBX 4 9 1 0
BITMAP
20
40
00
90
90
90
90
B0
50
ENDCHAR
STARTCHAR ucircumflex
ENCODING 251
SWIDTH 620 0
DWIDTH 6 0
BBX 4 9 1 0
BITMAP
20
50
00
90
90
90
90
B0
50
ENDCHAR
STARTCHAR udieresis
ENCODING 252
SWIDTH 620 0
DWIDTH 6 0
BBX 4 8 1 0
BITMAP
90
00
90
90
90
90
B0
50
ENDCHAR
STARTCHAR yacute
ENCODING 253
SWIDTH 568 0
DWIDTH 6 0
BBX 4 11 1 -2
BITMAP
20
40
00
90
90
90
90
60
60
40
C0
ENDCHAR
STARTCHAR thorn
ENCODING 254
SWIDTH 630 0
DWIDTH 6 0
BBX 4 9 1 -2
BITMAP
80
A0
D0
90
90
90
E0
80
80
ENDCHAR
STARTCHAR ydieresis
ENCODING 255
SWIDTH 568 0
DWIDTH 6 0
BBX 4 10 1 -2
BITMAP
90
00
90
90
90
90
60
60
40
C0
ENDCHAR
STARTCHAR Amacron
ENCODING 256
SWIDTH 690 0
DWIDTH 7 0
BBX 5 9 1 0
BITMAP
70
00
20
20
50
50
F8
88
88
ENDCHAR
STARTCHAR amacron
ENCODING 257
SWIDTH 552 0
DWIDTH 6 0
BBX 5 8 1 0
BITMAP
70
00
60
10
70
90
90
68
ENDCHAR
STARTCHAR Abreve
ENCODING 258
SWIDTH 690 0
DWIDTH 7 0
BBX 5 10 1 0
BITMAP
48
30
00
20
20
50
50
F8
88
88
ENDCHAR
STARTCHAR abreve
ENCODING 259
SWIDTH 552 0
DWIDTH 6 0
BBX 5 9 1 0
BITMAP
48
30
00
60
10
70
90
90
68
ENDCHAR
STARTCHAR Aogonek
ENCODING 260
SWIDTH 690 0
DWIDTH 7 0
BBX 5 9 1 -2
BITMAP
20
20
50
50
F8
88
88
20
18
ENDCHAR
STARTCHAR aogonek
ENCODING 261
SWIDTH 552 0
DWIDTH 6 0
BBX 5 8 1 -2
BITMAP
60
10
70
90
90
68
20
18
ENDCHAR
STARTCHAR Cacute
ENCODING 262
SWIDTH 692 0
DWIDTH 7 0
BBX 5 10 1 0
BITMAP
10
20
00
38
40
80
80
80
40
38
ENDCHAR
STARTCHAR cacute
ENCODING 263
SWIDTH 518 0
DWIDTH 6 0
BBX 4 9 1 0
BITMAP
20
40
00
70
80
80
80
80
70
ENDCHAR
STARTCHAR Ccircumflex
ENCODING 264
SWIDTH 692 0
DWIDTH 7 0
BBX 5 10 1 0
BITMAP
20
50
00
38
40
80
80
80
40
38
ENDCHAR
STARTCHAR ccircumflex
ENCODING 265
SWIDTH 518 0
DWIDTH 6 0
BBX 4 9 1 0
BITMAP
20
50
00
70
80
80
80
80
70
ENDCHAR
STARTCHAR Cdotaccent
ENCODING 266
SWIDTH 692 0
DWIDTH 7 0
BBX 5 10 1 0
BITMAP
20
20
00
38
40
80
80
80
40
38
ENDCHAR
STARTCHAR cdotaccent
ENCODING 267
SWIDTH 518 0
DWIDTH 6 0
BBX 4 9 1 0
BITMAP
20
20
00
70
80
80
80
80
70
ENDCHAR
STARTCHAR Ccaron
ENCODING 268
SWIDTH 692 0
DWIDTH 7 0
BBX 5 10 1 0
BITMAP
50
20
00
38
40
80
80
80
40
38
ENDCHAR
STARTCHAR ccaron
ENCODING 269
SWIDTH 518 0
DWIDTH 6 0
BBX 4 9 1 0
BITMAP
50
20
00
70
80
80
80
80
70
ENDCHAR
STARTCHAR Dcaron
ENCODING 270
SWIDTH 749 0
DWIDTH 8 0
BBX 6 10 1 0
BITMAP
50
20
00
F0
88
84
84
84
88
F0
ENDCHAR
STARTCHAR dcaron
ENCODING 271
SWIDTH 828 0
DWIDTH 8 0
BBX 7 8 1 0
BITMAP
12
12
74
90
90
90
B0
50
ENDCHAR
STARTCHAR Dcroat
ENCODING 272
SWIDTH 749 0
DWIDTH 8 0
BBX 7 7 0 0
BITMAP
78
44
42
F2
42
44
78
ENDCHAR
STARTCHAR dcroat
ENCODING 273
SWIDTH 630 0
DWIDTH 6 0
BBX 4 8 1 0
BITMAP
10
F0
70
90
90
90
B0
50
ENDCHAR
STARTCHAR Emacron
ENCODING 274
SWIDTH 542 0
DWIDTH 6 0
BBX 4 9 1 0
BITMAP
E0
00
F0
80
80
E0
80
80
F0
ENDCHAR
STARTCHAR emacron
ENCODING 275
SWIDTH 557 0
DWIDTH 6 0
BBX 4 8 1 0
BITMAP
70
00
60
90
F0
80
80
70
ENDCHAR
STARTCHAR Ebreve
ENCODING 276
SWIDTH 542 0
DWIDTH 6 0
BBX 4 10 1 0
BITMAP
90
60
00
F0
80
80
E0
80
80
F0
ENDCHAR
STARTCHAR ebreve
ENCODING 277
SWIDTH 557 0
DWIDTH 6 0
BBX 4 9 1 0
BITMAP
90
60
00
60
90
F0
80
80
70
ENDCHAR
STARTCHAR Edotaccent
ENCODING 278
SWIDTH 542 0
DWIDTH 6 0
BBX 4 10 1 0
BITMAP
40
40
00
F0
80
80
E0
80
80
F0
ENDCHAR
STARTCHAR edotaccent
ENCODING 279
SWIDTH 557 0
DWIDTH 6 0
BBX 4 9 1 0
BITMAP
20
20
00
60
90
F0
80
80
70
ENDCHAR
STARTCHAR Eogonek
ENCODING 280
SWIDTH 542 0
DWIDTH 6 0
BBX 4 9 1 -2
BITMAP
F0
80
80
E0
80
80
F0
40
30
ENDCHAR
STARTCHAR eogonek
ENCODING 281
SWIDTH 557 0
DWIDTH 6 0
BBX 4 8 1 -2
BITMAP
60
90
F0
80
80
70
40
30
ENDCHAR
STARTCHAR Ecaron
ENCODING 282
SWIDTH 542 0
DWIDTH 6 0
BBX 4 10 1 0
BITMAP
A0
40
00
F0
80
80
E0
80
80
F0
ENDCHAR
STARTCHAR ecaron
ENCODING 283
SWIDTH 557 0
DWIDTH 6 0
BBX 4 9 1 0
BITMAP
50
20
00
60
90
F0
80
80
70
ENDCHAR
STARTCHAR Gcircumflex
ENCODING 284
SWIDTH 723 0
DWIDTH 7 0
BBX 5 10 1 0
BITMAP
20
50
00
38
40
80
80
88
48
38
ENDCHAR
STARTCHAR gcircumflex
ENCODING 285
SWIDTH 623 0
DWIDTH 6 0
BBX 4 11 1 -2
BITMAP
20
50
00
70
90
90
90
B0
50
10
60
ENDCHAR
STARTCHAR Gbreve
ENCODING 286
SWIDTH 723 0
DWIDTH 7 0
BBX 5 10 1 0
BITMAP
48
30
00
38
40
80
80
88
48
38
ENDCHAR
STARTCHAR gbreve
ENCODING 287
SWIDTH 623 0
DWIDTH 6 0
BBX 4 11 1 -2
BITMAP
90
60
00
70
90
90
90
B0
50
10
60
ENDCHAR
STARTCHAR Gdotaccent
ENCODING 288
SWIDTH 723 0
DWIDTH 7 0
BBX 5 10 1 0
BITMAP
20
20
00
38
40
80
80
88
48
38
ENDCHAR
STARTCHAR gdotaccent
ENCODING 289
SWIDTH 623 0
DWIDTH 6 0
BBX 4 11 1 -2
BITMAP
20
20
00
70
90
90
90
B0
50
10
60
ENDCHAR
STARTCHAR Gcommaaccent
ENCODING 290
SWIDTH 723 0
DWIDTH 7 0
BBX 5 12 1 -5
BITMAP
38
40
80
80
88
48
38
00
10
10
10
20
ENDCHAR
STARTCHAR gcommaaccent
ENCODING 291
SWIDTH 623 0
DWIDTH 6 0
BBX 4 12 1 -2
BITMAP
20
40
40
00
70
90
90
90
B0
50
10
60
ENDCHAR
STARTCHAR Hcircumflex
ENCODING 292
SWIDTH 735 0
DWIDTH 7 0
BBX 5 10 1 0
BITMAP
20
50
00
88
88
88
F8
88
88
88
ENDCHAR
STARTCHAR hcircumflex
ENCODING 293
SWIDTH 620 0
DWIDTH 6 0
BBX 4 11 1 0
BITMAP
40
A0
00
80
80
A0
D0
90
90
90
90
ENDCHAR
STARTCHAR Hbar
ENCODING 294
SWIDTH 735 0
DWIDTH 7 0
BBX 5 7 1 0
BITMAP
F8
88
88
F8
88
88
88
ENDCHAR
STARTCHAR hbar
ENCODING 295
SWIDTH 620 0
DWIDTH 6 0
BBX 5 8 0 0
BITMAP
40
F0
50
68
48
48
48
48
ENDCHAR
STARTCHAR Itilde
ENCODING 296
SWIDTH 288 0
DWIDTH 3 0
BBX 5 10 -1 0
BITMAP
68
B0
00
20
20
20
20
20
20
20
ENDCHAR
STARTCHAR itilde
ENCODING 297
SWIDTH 289 0
DWIDTH 3 0
BBX 5 9 -1 0
BITMAP
68
B0
00
20
20
20
20
20
20
ENDCHAR
STARTCHAR Imacron
ENCODING 298
SWIDTH 288 0
DWIDTH 3 0
BBX 3 9 0 0
BITMAP
E0
00
40
40
40
40
40
40
40
ENDCHAR
STARTCHAR imacron
ENCODING 299
SWIDTH 289 0
DWIDTH 3 0
BBX 3 8 0 0
BITMAP
E0
00
40
40
40
40
40
40
ENDCHAR
STARTCHAR Ibreve
ENCODING 300
SWIDTH 288 0
DWIDTH 3 0
BBX 4 10 0 0
BITMAP
90
60
00
40
40
40
40
40
40
40
ENDCHAR
STARTCHAR ibreve
ENCODING 301
SWIDTH 289 0
DWIDTH 3 0
BBX 4 9 0 0
BITMAP
90
60
00
40
40
40
40
40
40
ENDCHAR
STARTCHAR Iogonek
ENCODING 302
SWIDTH 288 0
DWIDTH 3 0
BBX 3 9 1 -2
BITMAP
80
80
80
80
80
80
80
80
60
ENDCHAR
STARTCHAR iogonek
ENCODING 303
SWIDTH 289 0
DWIDTH 3 0
BBX 3 10 1 -2
BITMAP
80
00
80
80
80
80
80
80
80
60
ENDCHAR
STARTCHAR Idotaccent
ENCODING 304
SWIDTH 288 0
DWIDTH 3 0
BBX 1 10 1 0
BITMAP
80
80
00
80
80
80
80
80
80
80
ENDCHAR
STARTCHAR dotlessi
ENCODING 305
SWIDTH 289 0
DWIDTH 3 0
BBX 1 6 1 0
BITMAP
80
80
80
80
80
80
ENDCHAR
STARTCHAR IJ
ENCODING 306
SWIDTH 585 0
DWIDTH 7 0
BBX 5 9 1 -2
BITMAP
88
88
88
88
88
88
88
08
30
ENDCHAR
STARTCHAR ij
ENCODING 307
SWIDTH 579 0
DWIDTH 6 0
BBX 4 10 1 -2
BITMAP
90
00
90
90
90
90
90
90
10
20
ENDCHAR
STARTCHAR Jcircumflex
ENCODING 308
SWIDTH 311 0
DWIDTH 4 0
BBX 4 12 0 -2
BITMAP
20
50
00
20
20
20
20
20
20
20
20
C0
ENDCHAR
STARTCHAR jcircumflex
ENCODING 309
SWIDTH 304 0
DWIDTH 3 0
BBX 3 11 0 -2
BITMAP
40
A0
00
40
40
40
40
40
40
40
80
ENDCHAR
STARTCHAR Kcommaaccent
ENCODING 310
SWIDTH 653 0
DWIDTH 7 0
BBX 5 12 1 -5
BITMAP
88
90
A0
C0
A0
90
88
00
20
20
20
40
ENDCHAR
STARTCHAR kcommaaccent
ENCODING 311
SWIDTH 585 0
DWIDTH 6 0
BBX 5 13 1 -5
BITMAP
80
80
90
A0
C0
A0
90
88
00
20
20
20
40
ENDCHAR
STARTCHAR kgreenlandic
ENCODING 312
SWIDTH 585 0
DWIDTH 6 0
BBX 5 6 1 0
BITMAP
90
A0
C0
A0
90
88
ENDCHAR
STARTCHAR Lacute
ENCODING 313
SWIDTH 533 0
DWIDTH 5 0
BBX 4 10 1 0
BITMAP
40
80
00
80
80
80
80
80
80
F0
ENDCHAR
STARTCHAR lacute
ENCODING 314
SWIDTH 289 0
DWIDTH 3 0
BBX 2 11 1 0
BITMAP
40
80
00
80
80
80
80
80
80
80
80
ENDCHAR
STARTCHAR Lcommaaccent
ENCODING 315
SWIDTH 533 0
DWIDTH 5 0
BBX 4 12 1 -5
BITMAP
80
80
80
80
80
80
F0
00
40
40
40
80
ENDCHAR
STARTCHAR lcommaaccent
ENCODING 316
SWIDTH 289 0
DWIDTH 3 0
BBX 2 13 0 -5
BITMAP
40
40
40
40
40
40
40
40
00
40
40
40
80
ENDCHAR
STARTCHAR Lcaron
ENCODING 317
SWIDTH 735 0
DWIDTH 7 0
BBX 6 8 1 0
BITMAP
04
84
88
80
80
80
80
F0
ENDCHAR
STARTCHAR lcaron
ENCODING 318
SWIDTH 504 0
DWIDTH 5 0
BBX 4 8 1 0
BITMAP
90
90
A0
80
80
80
80
80
ENDCHAR
STARTCHAR Ldot
ENCODING 319
SWIDTH 822 0
DWIDTH 12 0
BBX 9 7 1 0
BITMAP
8000
8000
8000
8180
8180
8000
F000
ENDCHAR
STARTCHAR ldot
ENCODING 320
SWIDTH 591 0
DWIDTH 10 0
BBX 7 8 1 0
BITMAP
80
80
80
80
86
86
80
80
ENDCHAR
STARTCHAR Lslash
ENCODING 321
SWIDTH 533 0
DWIDTH 6 0
BBX 6 7 0 0
BITMAP
20
20
38
E0
20
20
3C
ENDCHAR
STARTCHAR lslash
ENCODING 322
SWIDTH 289 0
DWIDTH 5 0
BBX 5 8 0 0
BITMAP
20
20
38
E0
20
20
20
20
ENDCHAR
STARTCHAR Nacute
ENCODING 323
SWIDTH 741 0
DWIDTH 8 0
BBX 6 10 1 0
BITMAP
10
20
00
84
C4
A4
94
94
8C
84
ENDCHAR
STARTCHAR nacute
ENCODING 324
SWIDTH 620 0
DWIDTH 6 0
BBX 4 9 1 0
BITMAP
20
40
00
A0
D0
90
90
90
90
ENDCHAR
STARTCHAR Ncommaaccent
ENCODING 325
SWIDTH 741 0
DWIDTH 8 0
BBX 6 12 1 -5
BITMAP
84
C4
A4
94
94
8C
84
00
10
10
10
20
ENDCHAR
STARTCHAR ncommaaccent
ENCODING 326
SWIDTH 620 0
DWIDTH 6 0
BBX 4 11 1 -5
BITMAP
A0
D0
90
90
90
90
00
20
20
20
40
ENDCHAR
STARTCHAR Ncaron
ENCODING 327
SWIDTH 741 0
DWIDTH 8 0
BBX 6 10 1 0
BITMAP
50
20
00
84
C4
A4
94
94
8C
84
ENDCHAR
STARTCHAR ncaron
ENCODING 328
SWIDTH 620 0
DWIDTH 6 0
BBX 4 9 1 0
BITMAP
A0
40
00
A0
D0
90
90
90
90
ENDCHAR
STARTCHAR napostrophe
ENCODING 329
SWIDTH 838 0
DWIDTH 8 0
BBX 7 8 0 0
BITMAP
40
40
94
1A
12
12
12
12
ENDCHAR
STARTCHAR Eng
ENCODING 330
SWIDTH 741 0
DWIDTH 8 0
BBX 6 9 1 -2
BITMAP
84
C4
A4
94
94
8C
84
04
08
ENDCHAR
STARTCHAR eng
ENCODING 331
SWIDTH 620 0
DWIDTH 6 0
BBX 4 8 1 -2
BITMAP
A0
D0
90
90
90
90
10
20
ENDCHAR
STARTCHAR Omacron
ENCODING 332
SWIDTH 777 0
DWIDTH 8 0
BBX 6 9 1 0
BITMAP
38
00
30
48
84
84
84
48
30
ENDCHAR
STARTCHAR omacron
ENCODING 333
SWIDTH 614 0
DWIDTH 6 0
BBX 4 8 1 0
BITMAP
70
00
60
90
90
90
90
60
ENDCHAR
STARTCHAR Obreve
ENCODING 334
SWIDTH 777 0
DWIDTH 8 0
BBX 6 10 1 0
BITMAP
48
30
00
30
48
84
84
84
48
30
ENDCHAR
STARTCHAR obreve
ENCODING 335
SWIDTH 614 0
DWIDTH 6 0
BBX 4 9 1 0
BITMAP
90
60
00
60
90
90
90
90
60
ENDCHAR
STARTCHAR Ohungarumlaut
ENCODING 336
SWIDTH 777 0
DWIDTH 8 0
BBX 6 10 1 0
BITMAP
24
48
00
30
48
84
84
84
48
30
ENDCHAR
STARTCHAR ohungarumlaut
ENCODING 337
SWIDTH 614 0
DWIDTH 6 0
BBX 5 9 1 0
BITMAP
48
90
00
60
90
90
90
90
60
ENDCHAR
STARTCHAR OE
ENCODING 338
SWIDTH 1000 0
DWIDTH 10 0
BBX 8 7 1 0
BITMAP
3F
48
88
8E
88
48
3F
ENDCHAR
STARTCHAR oe
ENCODING 339
SWIDTH 930 0
DWIDTH 9 0
BBX 7 6 1 0
BITMAP
6C
92
9E
90
90
6E
ENDCHAR
STARTCHAR Racute
ENCODING 340
SWIDTH 633 0
DWIDTH 6 0
BBX 5 10 1 0
BITMAP
20
40
00
E0
90
90
E0
A0
90
88
ENDCHAR
STARTCHAR racute
ENCODING 341
SWIDTH 409 0
DWIDTH 5 0
BBX 3 9 1 0
BITMAP
20
40
00
A0
E0
80
80
80
80
ENDCHAR
STARTCHAR Rcommaaccent
ENCODING 342
SWIDTH 633 0
DWIDTH 6 0
BBX 5 12 1 -5
BITMAP
E0
90
90
E0
A0
90
88
00
20
20
20
40
ENDCHAR
STARTCHAR rcommaaccent
ENCODING 343
SWIDTH 409 0
DWIDTH 5 0
BBX 3 11 1 -5
BITMAP
A0
E0
80
80
80
80
00
40
40
40
80
ENDCHAR
STARTCHAR Rcaron
ENCODING 344
SWIDTH 633 0
DWIDTH 6 0
BBX 5 10 1 0
BITMAP
A0
40
00
E0
90
90
E0
A0
90
88
ENDCHAR
STARTCHAR rcaron
ENCODING 345
SWIDTH 409 0
DWIDTH 5 0
BBX 3 9 1 0
BITMAP
A0
40
00
A0
E0
80
80
80
80
ENDCHAR
STARTCHAR Sacute
ENCODING 346
SWIDTH 539 0
DWIDTH 6 0
BBX 4 10 1 0
BITMAP
20
40
00
70
80
80
60
10
10
E0
ENDCHAR
STARTCHAR sacute
ENCODING 347
SWIDTH 510 0
DWIDTH 5 0
BBX 3 9 1 0
BITMAP
20
40
00
60
80
C0
60
20
C0
ENDCHAR
STARTCHAR Scircumflex
ENCODING 348
SWIDTH 539 0
DWIDTH 6 0
BBX 4 10 1 0
BITMAP
20
50
00
70
80
80
60
10
10
E0
ENDCHAR
STARTCHAR scircumflex
ENCODING 349
SWIDTH 510 0
DWIDTH 5 0
BBX 3 9 1 0
BITMAP
40
A0
00
60
80
C0
60
20
C0
ENDCHAR
STARTCHAR Scedilla
ENCODING 350
SWIDTH 539 0
DWIDTH 6 0
BBX 4 9 1 -2
BITMAP
70
80
80
60
10
10
E0
20
C0
ENDCHAR
STARTCHAR scedilla
ENCODING 351
SWIDTH 510 0
DWIDTH 5 0
BBX 4 8 0 -2
BITMAP
30
40
60
30
10
60
20
C0
ENDCHAR
STARTCHAR Scaron
ENCODING 352
SWIDTH 539 0
DWIDTH 6 0
BBX 4 9 1 0
BITMAP
50
20
00
70
80
C0
30
10
E0
ENDCHAR
STARTCHAR scaron
ENCODING 353
SWIDTH 510 0
DWIDTH 5 0
BBX 3 9 1 0
BITMAP
A0
40
00
60
80
C0
60
20
C0
ENDCHAR
STARTCHAR Tcommaaccent
ENCODING 354
SWIDTH 633 0
DWIDTH 7 0
BBX 5 9 1 -2
BITMAP
F8
20
20
20
20
20
20
20
C0
ENDCHAR
STARTCHAR tcommaaccent
ENCODING 355
SWIDTH 374 0
DWIDTH 4 0
BBX 4 9 0 -2
BITMAP
40
F0
40
40
40
40
30
20
C0
ENDCHAR
STARTCHAR Tcaron
ENCODING 356
SWIDTH 633 0
DWIDTH 7 0
BBX 5 10 1 0
BITMAP
50
20
00
F8
20
20
20
20
20
20
ENDCHAR
STARTCHAR tcaron
ENCODING 357
SWIDTH 584 0
DWIDTH 6 0
BBX 6 8 0 0
BITMAP
04
44
F8
40
40
40
40
30
ENDCHAR
STARTCHAR Tbar
ENCODING 358
SWIDTH 633 0
DWIDTH 7 0
BBX 5 7 1 0
BITMAP
F8
20
20
78
20
20
20
ENDCHAR
STARTCHAR tbar
ENCODING 359
SWIDTH 374 0
DWIDTH 4 0
BBX 4 7 0 0
BITMAP
40
F0
40
F0
40
40
30
ENDCHAR
STARTCHAR Utilde
ENCODING 360
SWIDTH 693 0
DWIDTH 7 0
BBX 5 10 1 0
BITMAP
68
B0
00
88
88
88
88
88
88
70
ENDCHAR
STARTCHAR utilde
ENCODING 361
SWIDTH 620 0
DWIDTH 6 0
BBX 5 9 1 0
BITMAP
68
B0
00
90
90
90
90
B0
50
ENDCHAR
STARTCHAR Umacron
ENCODING 362
SWIDTH 693 0
DWIDTH 7 0
BBX 5 9 1 0
BITMAP
70
00
88
88
88
88
88
88
70
ENDCHAR
STARTCHAR umacron
ENCODING 363
SWIDTH 620 0
DWIDTH 6 0
BBX 4 8 1 0
BITMAP
70
00
90
90
90
90
B0
50
ENDCHAR
STARTCHAR Ubreve
ENCODING 364
SWIDTH 693 0
DWIDTH 7 0
BBX 5 10 1 0
BITMAP
48
30
00
88
88
88
88
88
88
70
ENDCHAR
STARTCHAR ubreve
ENCODING 365
SWIDTH 620 0
DWIDTH 6 0
BBX 4 9 1 0
BITMAP
90
60
00
90
90
90
90
B0
50
ENDCHAR
STARTCHAR Uring
ENCODING 366
SWIDTH 693 0
DWIDTH 7 0
BBX 5 11 1 0
BITMAP
20
50
20
00
88
88
88
88
88
88
70
ENDCHAR
STARTCHAR uring
ENCODING 367
SWIDTH 620 0
DWIDTH 6 0
BBX 4 10 1 0
BITMAP
20
50
20
00
90
90
90
90
B0
50
ENDCHAR
STARTCHAR Uhungarumlaut
ENCODING 368
SWIDTH 693 0
DWIDTH 7 0
BBX 5 10 1 0
BITMAP
48
90
00
88
88
88
88
88
88
70
ENDCHAR
STARTCHAR uhungarumlaut
ENCODING 369
SWIDTH 620 0
DWIDTH 6 0
BBX 5 9 1 0
BITMAP
48
90
00
90
90
90
90
B0
50
ENDCHAR
STARTCHAR Uogonek
ENCODING 370
SWIDTH 693 0
DWIDTH 7 0
BBX 5 9 1 -2
BITMAP
88
88
88
88
88
88
70
20
18
ENDCHAR
STARTCHAR uogonek
ENCODING 371
SWIDTH 620 0
DWIDTH 6 0
BBX 4 8 1 -2
BITMAP
90
90
90
90
B0
50
40
30
ENDCHAR
STARTCHAR Wcircumflex
ENCODING 372
SWIDTH 855 0
DWIDTH 9 0
BBX 7 10 1 0
BITMAP
10
28
00
82
92
92
AA
44
44
44
ENDCHAR
STARTCHAR wcircumflex
ENCODING 373
SWIDTH 840 0
DWIDTH 9 0
BBX 7 9 1 0
BITMAP
10
28
00
82
92
92
AA
44
44
ENDCHAR
STARTCHAR Ycircumflex
ENCODING 374
SWIDTH 623 0
DWIDTH 7 0
BBX 5 10 1 0
BITMAP
20
50
00
88
88
50
20
20
20
20
ENDCHAR
STARTCHAR ycircumflex
ENCODING 375
SWIDTH 568 0
DWIDTH 6 0
BBX 4 11 1 -2
BITMAP
20
50
00
90
90
90
90
60
60
40
C0
ENDCHAR
STARTCHAR Ydieresis
ENCODING 376
SWIDTH 623 0
DWIDTH 7 0
BBX 5 8 1 0
BITMAP
90
00
88
88
50
20
20
20
ENDCHAR
STARTCHAR Zacute
ENCODING 377
SWIDTH 605 0
DWIDTH 6 0
BBX 4 10 1 0
BITMAP
10
20
00
F0
10
20
60
40
80
F0
ENDCHAR
STARTCHAR zacute
ENCODING 378
SWIDTH 573 0
DWIDTH 6 0
BBX 4 9 1 0
BITMAP
10
20
00
F0
10
20
40
80
F0
ENDCHAR
STARTCHAR Zdotaccent
ENCODING 379
SWIDTH 605 0
DWIDTH 6 0
BBX 4 10 1 0
BITMAP
20
20
00
F0
10
20
60
40
80
F0
ENDCHAR
STARTCHAR zdotaccent
ENCODING 380
SWIDTH 573 0
DWIDTH 6 0
BBX 4 9 1 0
BITMAP
20
20
00
F0
10
20
40
80
F0
ENDCHAR
STARTCHAR Zcaron
ENCODING 381
SWIDTH 605 0
DWIDTH 6 0
BBX 4 9 1 0
BITMAP
50
20
00
F0
10
20
40
80
F0
ENDCHAR
STARTCHAR zcaron
ENCODING 382
SWIDTH 573 0
DWIDTH 6 0
BBX 4 9 1 0
BITMAP
50
20
00
F0
10
20
40
80
F0
ENDCHAR
STARTCHAR uni0186
ENCODING 390
SWIDTH 692 0
DWIDTH 7 0
BBX 5 7 1 0
BITMAP
E0
10
08
08
08
10
E0
ENDCHAR
STARTCHAR uni0189
ENCODING 393
SWIDTH 749 0
DWIDTH 8 0
BBX 7 7 0 0
BITMAP
78
44
42
F2
42
44
78
ENDCHAR
STARTCHAR uni018E
ENCODING 398
SWIDTH 542 0
DWIDTH 6 0
BBX 4 7 1 0
BITMAP
F0
10
10
70
10
10
F0
ENDCHAR
STARTCHAR florin
ENCODING 402
SWIDTH 633 0
DWIDTH 6 0
BBX 4 8 1 -1
BITMAP
30
40
40
F0
40
40
80
80
ENDCHAR
STARTCHAR uni0197
ENCODING 407
SWIDTH 288 0
DWIDTH 3 0
BBX 4 7 0 0
BITMAP
40
40
40
F0
40
40
40
ENDCHAR
STARTCHAR uni019A
ENCODING 410
SWIDTH 289 0
DWIDTH 3 0
BBX 4 8 0 0
BITMAP
40
40
40
F0
40
40
40
40
ENDCHAR
STARTCHAR uni019D
ENCODING 413
SWIDTH 741 0
DWIDTH 8 0
BBX 7 9 0 -2
BITMAP
42
62
52
4A
4A
46
42
40
80
ENDCHAR
STARTCHAR uni019F
ENCODING 415
SWIDTH 777 0
DWIDTH 8 0
BBX 6 7 1 0
BITMAP
30
48
84
FC
84
48
30
ENDCHAR
STARTCHAR Ohorn
ENCODING 416
SWIDTH 777 0
DWIDTH 8 0
BBX 8 7 1 0
BITMAP
31
49
86
84
84
48
30
ENDCHAR
STARTCHAR ohorn
ENCODING 417
SWIDTH 614 0
DWIDTH 6 0
BBX 6 6 1 0
BITMAP
64
94
98
90
90
60
ENDCHAR
STARTCHAR uni01A7
ENCODING 423
SWIDTH 539 0
DWIDTH 6 0
BBX 4 7 1 0
BITMAP
E0
10
10
60
80
80
70
ENDCHAR
STARTCHAR uni01A8
ENCODING 424
SWIDTH 510 0
DWIDTH 5 0
BBX 3 6 1 0
BITMAP
C0
20
60
C0
80
60
ENDCHAR
STARTCHAR uni01AE
ENCODING 430
SWIDTH 633 0
DWIDTH 7 0
BBX 5 9 1 -2
BITMAP
F8
20
20
20
20
20
20
20
10
ENDCHAR
STARTCHAR Uhorn
ENCODING 431
SWIDTH 693 0
DWIDTH 7 0
BBX 7 7 1 0
BITMAP
8A
8A
8C
88
88
88
70
ENDCHAR
STARTCHAR uhorn
ENCODING 432
SWIDTH 620 0
DWIDTH 6 0
BBX 6 6 1 0
BITMAP
94
94
98
90
B0
50
ENDCHAR
STARTCHAR uni01B5
ENCODING 437
SWIDTH 605 0
DWIDTH 6 0
BBX 4 7 1 0
BITMAP
F0
10
20
F0
40
80
F0
ENDCHAR
STARTCHAR uni01B6
ENCODING 438
SWIDTH 573 0
DWIDTH 6 0
BBX 4 6 1 0
BITMAP
F0
10
F0
40
80
F0
ENDCHAR
STARTCHAR uni01BB
ENCODING 443
SWIDTH 633 0
DWIDTH 6 0
BBX 4 7 1 0
BITMAP
E0
10
10
F0
40
80
F0
ENDCHAR
STARTCHAR uni01BC
ENCODING 444
SWIDTH 633 0
DWIDTH 6 0
BBX 4 7 1 0
BITMAP
F0
80
80
E0
10
10
E0
ENDCHAR
STARTCHAR uni01C0
ENCODING 448
SWIDTH 265 0
DWIDTH 3 0
BBX 1 9 1 -1
BITMAP
80
80
80
80
80
80
80
80
80
ENDCHAR
STARTCHAR uni01C2
ENCODING 450
SWIDTH 633 0
DWIDTH 6 0
BBX 5 9 1 -1
BITMAP
20
20
20
F8
20
F8
20
20
20
ENDCHAR
STARTCHAR uni01C3
ENCODING 451
SWIDTH 205 0
DWIDTH 3 0
BBX 1 7 1 0
BITMAP
80
80
80
80
00
80
80
ENDCHAR
STARTCHAR uni01CD
ENCODING 461
SWIDTH 690 0
DWIDTH 7 0
BBX 5 10 1 0
BITMAP
50
20
00
20
20
50
50
F8
88
88
ENDCHAR
STARTCHAR uni01CE
ENCODING 462
SWIDTH 552 0
DWIDTH 6 0
BBX 5 9 1 0
BITMAP
50
20
00
60
10
70
90
90
68
ENDCHAR
STARTCHAR uni01CF
ENCODING 463
SWIDTH 288 0
DWIDTH 3 0
BBX 3 10 0 0
BITMAP
A0
40
00
40
40
40
40
40
40
40
ENDCHAR
STARTCHAR uni01D0
ENCODING 464
SWIDTH 289 0
DWIDTH 3 0
BBX 3 9 0 0
BITMAP
A0
40
00
40
40
40
40
40
40
ENDCHAR
STARTCHAR uni01D1
ENCODING 465
SWIDTH 777 0
DWIDTH 8 0
BBX 6 10 1 0
BITMAP
28
10
00
30
48
84
84
84
48
30
ENDCHAR
STARTCHAR uni01D2
ENCODING 466
SWIDTH 614 0
DWIDTH 6 0
BBX 4 9 1 0
BITMAP
50
20
00
60
90
90
90
90
60
ENDCHAR
STARTCHAR uni01D3
ENCODING 467
SWIDTH 693 0
DWIDTH 7 0
BBX 5 10 1 0
BITMAP
50
20
00
88
88
88
88
88
88
70
ENDCHAR
STARTCHAR uni01D4
ENCODING 468
SWIDTH 620 0
DWIDTH 6 0
BBX 4 9 1 0
BITMAP
50
20
00
90
90
90
90
B0
50
ENDCHAR
STARTCHAR uni01D5
ENCODING 469
SWIDTH 693 0
DWIDTH 7 0
BBX 5 10 1 0
BITMAP
70
00
90
00
88
88
88
88
88
70
ENDCHAR
STARTCHAR uni01D6
ENCODING 470
SWIDTH 620 0
DWIDTH 6 0
BBX 4 10 1 0
BITMAP
70
00
90
00
90
90
90
90
B0
50
ENDCHAR
STARTCHAR uni01D7
ENCODING 471
SWIDTH 693 0
DWIDTH 7 0
BBX 5 11 1 0
BITMAP
10
20
00
90
00
88
88
88
88
88
70
ENDCHAR
STARTCHAR uni01D8
ENCODING 472
SWIDTH 620 0
DWIDTH 6 0
BBX 4 11 1 0
BITMAP
20
40
00
90
00
90
90
90
90
B0
50
ENDCHAR
STARTCHAR uni01D9
ENCODING 473
SWIDTH 693 0
DWIDTH 7 0
BBX 5 11 1 0
BITMAP
50
20
00
90
00
88
88
88
88
88
70
ENDCHAR
STARTCHAR uni01DA
ENCODING 474
SWIDTH 620 0
DWIDTH 6 0
BBX 4 11 1 0
BITMAP
50
20
00
90
00
90
90
90
90
B0
50
ENDCHAR
STARTCHAR uni01DB
ENCODING 475
SWIDTH 693 0
DWIDTH 7 0
BBX 5 11 1 0
BITMAP
40
20
00
90
00
88
88
88
88
88
70
ENDCHAR
STARTCHAR uni01DC
ENCODING 476
SWIDTH 620 0
DWIDTH 6 0
BBX 4 11 1 0
BITMAP
40
20
00
90
00
90
90
90
90
B0
50
ENDCHAR
STARTCHAR uni01DD
ENCODING 477
SWIDTH 557 0
DWIDTH 6 0
BBX 4 6 1 0
BITMAP
E0
10
10
F0
90
60
ENDCHAR
STARTCHAR uni01DE
ENCODING 478
SWIDTH 690 0
DWIDTH 7 0
BBX 5 10 1 0
BITMAP
70
00
50
00
20
50
50
F8
88
88
ENDCHAR
STARTCHAR uni01DF
ENCODING 479
SWIDTH 552 0
DWIDTH 6 0
BBX 5 10 1 0
BITMAP
70
00
90
00
60
10
70
90
90
68
ENDCHAR
STARTCHAR uni01E0
ENCODING 480
SWIDTH 690 0
DWIDTH 7 0
BBX 5 12 1 0
BITMAP
70
00
20
20
00
20
20
50
50
F8
88
88
ENDCHAR
STARTCHAR uni01E1
ENCODING 481
SWIDTH 552 0
DWIDTH 6 0
BBX 5 11 1 0
BITMAP
70
00
20
20
00
60
10
70
90
90
68
ENDCHAR
STARTCHAR uni01E2
ENCODING 482
SWIDTH 907 0
DWIDTH 9 0
BBX 7 9 1 0
BITMAP
38
00
3E
30
50
5C
F0
90
9E
ENDCHAR
STARTCHAR uni01E3
ENCODING 483
SWIDTH 853 0
DWIDTH 9 0
BBX 7 8 1 0
BITMAP
38
00
6C
12
7E
90
90
6E
ENDCHAR
STARTCHAR uni01E4
ENCODING 484
SWIDTH 723 0
DWIDTH 7 0
BBX 6 7 1 0
BITMAP
38
40
80
BC
88
48
38
ENDCHAR
STARTCHAR uni01E5
ENCODING 485
SWIDTH 623 0
DWIDTH 6 0
BBX 4 8 1 -2
BITMAP
70
90
90
90
B0
F0
10
60
ENDCHAR
STARTCHAR Gcaron
ENCODING 486
SWIDTH 723 0
DWIDTH 7 0
BBX 5 10 1 0
BITMAP
50
20
00
38
40
80
80
88
48
38
ENDCHAR
STARTCHAR gcaron
ENCODING 487
SWIDTH 623 0
DWIDTH 6 0
BBX 4 11 1 -2
BITMAP
50
20
00
70
90
90
90
B0
50
10
60
ENDCHAR
STARTCHAR uni01E8
ENCODING 488
SWIDTH 653 0
DWIDTH 7 0
BBX 5 10 1 0
BITMAP
50
20
00
88
90
A0
C0
A0
90
88
ENDCHAR
STARTCHAR uni01E9
ENCODING 489
SWIDTH 585 0
DWIDTH 6 0
BBX 5 11 1 0
BITMAP
A0
40
00
80
80
90
A0
C0
A0
90
88
ENDCHAR
STARTCHAR uni01EA
ENCODING 490
SWIDTH 777 0
DWIDTH 8 0
BBX 6 9 1 -2
BITMAP
30
48
84
84
84
48
30
20
18
ENDCHAR
STARTCHAR uni01EB
ENCODING 491
SWIDTH 614 0
DWIDTH 6 0
BBX 4 8 1 -2
BITMAP
60
90
90
90
90
60
40
30
ENDCHAR
STARTCHAR uni01EC
ENCODING 492
SWIDTH 777 0
DWIDTH 8 0
BBX 6 11 1 -2
BITMAP
38
00
30
48
84
84
84
48
30
20
18
ENDCHAR
STARTCHAR uni01ED
ENCODING 493
SWIDTH 614 0
DWIDTH 6 0
BBX 4 10 1 -2
BITMAP
70
00
60
90
90
90
90
60
40
30
ENDCHAR
STARTCHAR uni01F0
ENCODING 496
SWIDTH 304 0
DWIDTH 3 0
BBX 3 11 0 -2
BITMAP
A0
40
00
40
40
40
40
40
40
40
80
ENDCHAR
STARTCHAR uni01F4
ENCODING 500
SWIDTH 723 0
DWIDTH 7 0
BBX 5 10 1 0
BITMAP
10
20
00
38
40
80
80
88
48
38
ENDCHAR
STARTCHAR uni01F5
ENCODING 501
SWIDTH 623 0
DWIDTH 6 0
BBX 4 11 1 -2
BITMAP
20
40
00
70
90
90
90
B0
50
10
60
ENDCHAR
STARTCHAR uni01F8
ENCODING 504
SWIDTH 741 0
DWIDTH 8 0
BBX 6 10 1 0
BITMAP
40
20
00
84
C4
A4
94
94
8C
84
ENDCHAR
STARTCHAR uni01F9
ENCODING 505
SWIDTH 620 0
DWIDTH 6 0
BBX 4 9 1 0
BITMAP
80
40
00
A0
D0
90
90
90
90
ENDCHAR
STARTCHAR Aringacute
ENCODING 506
SWIDTH 690 0
DWIDTH 7 0
BBX 5 12 1 0
BITMAP
10
20
00
20
50
20
20
50
50
F8
88
88
ENDCHAR
STARTCHAR aringacute
ENCODING 507
SWIDTH 552 0
DWIDTH 6 0
BBX 5 12 1 0
BITMAP
10
20
00
20
50
20
60
10
70
90
90
68
ENDCHAR
STARTCHAR AEacute
ENCODING 508
SWIDTH 907 0
DWIDTH 9 0
BBX 7 10 1 0
BITMAP
08
10
00
3E
30
50
5C
F0
90
9E
ENDCHAR
STARTCHAR aeacute
ENCODING 509
SWIDTH 853 0
DWIDTH 9 0
BBX 7 9 1 0
BITMAP
08
10
00
6C
12
7E
90
90
6E
ENDCHAR
STARTCHAR Oslashacute
ENCODING 510
SWIDTH 777 0
DWIDTH 8 0
BBX 6 10 1 0
BITMAP
08
10
00
34
48
94
94
A4
48
B0
ENDCHAR
STARTCHAR oslashacute
ENCODING 511
SWIDTH 614 0
DWIDTH 6 0
BBX 6 9 0 0
BITMAP
08
10
00
34
48
58
68
48
B0
ENDCHAR
STARTCHAR uni0200
ENCODING 512
SWIDTH 690 0
DWIDTH 7 0
BBX 5 10 1 0
BITMAP
90
48
00
20
20
50
50
F8
88
88
ENDCHAR
STARTCHAR uni0201
ENCODING 513
SWIDTH 552 0
DWIDTH 6 0
BBX 5 9 1 0
BITMAP
90
48
00
60
10
70
90
90
68
ENDCHAR
STARTCHAR uni0202
ENCODING 514
SWIDTH 690 0
DWIDTH 7 0
BBX 5 10 1 0
BITMAP
30
48
00
20
20
50
50
F8
88
88
ENDCHAR
STARTCHAR uni0203
ENCODING 515
SWIDTH 552 0
DWIDTH 6 0
BBX 5 9 1 0
BITMAP
30
48
00
60
10
70
90
90
68
ENDCHAR
STARTCHAR uni0204
ENCODING 516
SWIDTH 542 0
DWIDTH 6 0
BBX 5 10 0 0
BITMAP
90
48
00
78
40
40
70
40
40
78
ENDCHAR
STARTCHAR uni0205
ENCODING 517
SWIDTH 557 0
DWIDTH 6 0
BBX 5 9 0 0
BITMAP
90
48
00
30
48
78
40
40
38
ENDCHAR
STARTCHAR uni0206
ENCODING 518
SWIDTH 542 0
DWIDTH 6 0
BBX 4 10 1 0
BITMAP
60
90
00
F0
80
80
E0
80
80
F0
ENDCHAR
STARTCHAR uni0207
ENCODING 519
SWIDTH 557 0
DWIDTH 6 0
BBX 4 9 1 0
BITMAP
60
90
00
60
90
F0
80
80
70
ENDCHAR
STARTCHAR uni0208
ENCODING 520
SWIDTH 288 0
DWIDTH 3 0
BBX 5 10 -1 0
BITMAP
90
48
00
20
20
20
20
20
20
20
ENDCHAR
STARTCHAR uni0209
ENCODING 521
SWIDTH 289 0
DWIDTH 3 0
BBX 5 9 -1 0
BITMAP
90
48
00
20
20
20
20
20
20
ENDCHAR
STARTCHAR uni020A
ENCODING 522
SWIDTH 288 0
DWIDTH 3 0
BBX 4 10 0 0
BITMAP
60
90
00
40
40
40
40
40
40
40
ENDCHAR
STARTCHAR uni020B
ENCODING 523
SWIDTH 289 0
DWIDTH 3 0
BBX 4 9 0 0
BITMAP
60
90
00
40
40
40
40
40
40
ENDCHAR
STARTCHAR uni020C
ENCODING 524
SWIDTH 777 0
DWIDTH 8 0
BBX 6 10 1 0
BITMAP
90
48
00
30
48
84
84
84
48
30
ENDCHAR
STARTCHAR uni020D
ENCODING 525
SWIDTH 614 0
DWIDTH 6 0
BBX 5 9 0 0
BITMAP
90
48
00
30
48
48
48
48
30
ENDCHAR
STARTCHAR uni020E
ENCODING 526
SWIDTH 777 0
DWIDTH 8 0
BBX 6 10 1 0
BITMAP
30
48
00
30
48
84
84
84
48
30
ENDCHAR
STARTCHAR uni020F
ENCODING 527
SWIDTH 614 0
DWIDTH 6 0
BBX 4 9 1 0
BITMAP
60
90
00
60
90
90
90
90
60
ENDCHAR
STARTCHAR uni0210
ENCODING 528
SWIDTH 633 0
DWIDTH 6 0
BBX 6 10 0 0
BITMAP
90
48
00
70
48
48
70
50
48
44
ENDCHAR
STARTCHAR uni0211
ENCODING 529
SWIDTH 409 0
DWIDTH 5 0
BBX 5 9 0 0
BITMAP
90
48
00
50
70
40
40
40
40
ENDCHAR
STARTCHAR uni0212
ENCODING 530
SWIDTH 633 0
DWIDTH 6 0
BBX 5 10 1 0
BITMAP
60
90
00
E0
90
90
E0
A0
90
88
ENDCHAR
STARTCHAR uni0213
ENCODING 531
SWIDTH 409 0
DWIDTH 5 0
BBX 4 9 1 0
BITMAP
60
90
00
A0
E0
80
80
80
80
ENDCHAR
STARTCHAR uni0214
ENCODING 532
SWIDTH 693 0
DWIDTH 7 0
BBX 5 10 1 0
BITMAP
90
48
00
88
88
88
88
88
88
70
ENDCHAR
STARTCHAR uni0215
ENCODING 533
SWIDTH 620 0
DWIDTH 6 0
BBX 5 9 0 0
BITMAP
90
48
00
48
48
48
48
58
28
ENDCHAR
STARTCHAR uni0216
ENCODING 534
SWIDTH 693 0
DWIDTH 7 0
BBX 5 10 1 0
BITMAP
30
48
00
88
88
88
88
88
88
70
ENDCHAR
STARTCHAR uni0217
ENCODING 535
SWIDTH 620 0
DWIDTH 6 0
BBX 4 9 1 0
BITMAP
60
90
00
90
90
90
90
B0
50
ENDCHAR
STARTCHAR Scommaaccent
ENCODING 536
SWIDTH 539 0
DWIDTH 6 0
BBX 4 12 1 -5
BITMAP
70
80
80
60
10
10
E0
00
20
20
20
40
ENDCHAR
STARTCHAR scommaaccent
ENCODING 537
SWIDTH 510 0
DWIDTH 5 0
BBX 3 11 1 -5
BITMAP
60
80
C0
60
20
C0
00
40
40
40
80
ENDCHAR
STARTCHAR Tcommaaccent
ENCODING 538
SWIDTH 633 0
DWIDTH 7 0
BBX 5 12 1 -5
BITMAP
F8
20
20
20
20
20
20
00
20
20
20
40
ENDCHAR
STARTCHAR tcommaaccent
ENCODING 539
SWIDTH 374 0
DWIDTH 4 0
BBX 4 12 0 -5
BITMAP
40
F0
40
40
40
40
30
00
20
20
20
40
ENDCHAR
STARTCHAR uni021E
ENCODING 542
SWIDTH 735 0
DWIDTH 7 0
BBX 5 10 1 0
BITMAP
50
20
00
88
88
88
F8
88
88
88
ENDCHAR
STARTCHAR uni021F
ENCODING 543
SWIDTH 620 0
DWIDTH 6 0
BBX 4 11 1 0
BITMAP
A0
40
00
80
80
A0
D0
90
90
90
90
ENDCHAR
STARTCHAR uni0226
ENCODING 550
SWIDTH 690 0
DWIDTH 7 0
BBX 5 10 1 0
BITMAP
20
20
00
20
20
50
50
F8
88
88
ENDCHAR
STARTCHAR uni0227
ENCODING 551
SWIDTH 552 0
DWIDTH 6 0
BBX 5 9 1 0
BITMAP
20
20
00
60
10
70
90
90
68
ENDCHAR
STARTCHAR uni0228
ENCODING 552
SWIDTH 542 0
DWIDTH 6 0
BBX 4 9 1 -2
BITMAP
F0
80
80
E0
80
80
F0
20
C0
ENDCHAR
STARTCHAR uni0229
ENCODING 553
SWIDTH 557 0
DWIDTH 6 0
BBX 4 8 1 -2
BITMAP
60
90
F0
80
80
70
20
C0
ENDCHAR
STARTCHAR uni022A
ENCODING 554
SWIDTH 777 0
DWIDTH 8 0
BBX 6 10 1 0
BITMAP
38
00
48
00
30
48
84
84
48
30
ENDCHAR
STARTCHAR uni022B
ENCODING 555
SWIDTH 614 0
DWIDTH 6 0
BBX 4 10 1 0
BITMAP
70
00
90
00
60
90
90
90
90
60
ENDCHAR
STARTCHAR uni022C
ENCODING 556
SWIDTH 777 0
DWIDTH 8 0
BBX 6 11 1 0
BITMAP
38
00
34
58
00
30
48
84
84
48
30
ENDCHAR
STARTCHAR uni022D
ENCODING 557
SWIDTH 614 0
DWIDTH 6 0
BBX 5 11 0 0
BITMAP
70
00
68
B0
00
30
48
48
48
48
30
ENDCHAR
STARTCHAR uni022E
ENCODING 558
SWIDTH 777 0
DWIDTH 8 0
BBX 6 10 1 0
BITMAP
10
10
00
30
48
84
84
84
48
30
ENDCHAR
STARTCHAR uni022F
ENCODING 559
SWIDTH 614 0
DWIDTH 6 0
BBX 4 9 1 0
BITMAP
20
20
00
60
90
90
90
90
60
ENDCHAR
STARTCHAR uni0230
ENCODING 560
SWIDTH 777 0
DWIDTH 8 0
BBX 6 12 1 0
BITMAP
38
00
10
10
00
30
48
84
84
84
48
30
ENDCHAR
STARTCHAR uni0231
ENCODING 561
SWIDTH 614 0
DWIDTH 6 0
BBX 4 11 1 0
BITMAP
70
00
20
20
00
60
90
90
90
90
60
ENDCHAR
STARTCHAR uni0232
ENCODING 562
SWIDTH 623 0
DWIDTH 7 0
BBX 5 9 1 0
BITMAP
70
00
88
88
50
20
20
20
20
ENDCHAR
STARTCHAR uni0233
ENCODING 563
SWIDTH 568 0
DWIDTH 6 0
BBX 4 10 1 -2
BITMAP
70
00
90
90
90
90
60
60
40
C0
ENDCHAR
STARTCHAR uni0250
ENCODING 592
SWIDTH 552 0
DWIDTH 6 0
BBX 5 6 1 0
BITMAP
B0
48
48
70
40
30
ENDCHAR
STARTCHAR uni0254
ENCODING 596
SWIDTH 518 0
DWIDTH 6 0
BBX 4 6 1 0
BITMAP
E0
10
10
10
10
E0
ENDCHAR
STARTCHAR uni0258
ENCODING 600
SWIDTH 557 0
DWIDTH 6 0
BBX 4 6 1 0
BITMAP
60
90
F0
10
10
E0
ENDCHAR
STARTCHAR uni0259
ENCODING 601
SWIDTH 557 0
DWIDTH 6 0
BBX 4 6 1 0
BITMAP
E0
10
10
F0
90
60
ENDCHAR
STARTCHAR uni025F
ENCODING 607
SWIDTH 367 0
DWIDTH 4 0
BBX 4 8 0 -2
BITMAP
20
20
20
20
20
F0
20
C0
ENDCHAR
STARTCHAR uni0265
ENCODING 613
SWIDTH 620 0
DWIDTH 6 0
BBX 4 8 1 -2
BITMAP
90
90
90
90
B0
50
10
10
ENDCHAR
STARTCHAR uni0275
ENCODING 629
SWIDTH 614 0
DWIDTH 6 0
BBX 4 6 1 0
BITMAP
60
90
F0
90
90
60
ENDCHAR
STARTCHAR uni0279
ENCODING 633
SWIDTH 409 0
DWIDTH 5 0
BBX 3 6 1 0
BITMAP
20
20
20
20
E0
A0
ENDCHAR
STARTCHAR uni0287
ENCODING 647
SWIDTH 374 0
DWIDTH 4 0
BBX 4 7 0 0
BITMAP
C0
20
20
20
20
F0
20
ENDCHAR
STARTCHAR uni0288
ENCODING 648
SWIDTH 374 0
DWIDTH 4 0
BBX 4 9 0 -2
BITMAP
40
F0
40
40
40
40
40
40
20
ENDCHAR
STARTCHAR uni0289
ENCODING 649
SWIDTH 620 0
DWIDTH 6 0
BBX 4 6 1 0
BITMAP
90
90
F0
90
B0
50
ENDCHAR
STARTCHAR uni028C
ENCODING 652
SWIDTH 572 0
DWIDTH 6 0
BBX 4 6 1 0
BITMAP
60
60
90
90
90
90
ENDCHAR
STARTCHAR uni028D
ENCODING 653
SWIDTH 840 0
DWIDTH 9 0
BBX 7 6 1 0
BITMAP
44
44
AA
92
92
82
ENDCHAR
STARTCHAR uni028E
ENCODING 654
SWIDTH 568 0
DWIDTH 6 0
BBX 4 8 1 0
BITMAP
30
20
60
60
90
90
90
90
ENDCHAR
STARTCHAR uni029E
ENCODING 670
SWIDTH 585 0
DWIDTH 6 0
BBX 5 8 1 -2
BITMAP
88
48
28
18
28
48
08
08
ENDCHAR
STARTCHAR uni02BB
ENCODING 699
SWIDTH 229 0
DWIDTH 2 0
BBX 2 3 0 5
BITMAP
40
80
80
ENDCHAR
STARTCHAR afii57929
ENCODING 700
SWIDTH 229 0
DWIDTH 2 0
BBX 2 3 0 5
BITMAP
40
40
80
ENDCHAR
STARTCHAR afii64937
ENCODING 701
SWIDTH 229 0
DWIDTH 2 0
BBX 2 3 0 5
BITMAP
80
80
40
ENDCHAR
STARTCHAR circumflex
ENCODING 710
SWIDTH 614 0
DWIDTH 6 0
BBX 3 2 2 7
BITMAP
40
A0
ENDCHAR
STARTCHAR caron
ENCODING 711
SWIDTH 614 0
DWIDTH 6 0
BBX 3 2 2 7
BITMAP
A0
40
ENDCHAR
STARTCHAR uni02C8
ENCODING 712
SWIDTH 229 0
DWIDTH 2 0
BBX 1 3 1 5
BITMAP
80
80
80
ENDCHAR
STARTCHAR macron
ENCODING 713
SWIDTH 614 0
DWIDTH 6 0
BBX 3 1 2 7
BITMAP
E0
ENDCHAR
STARTCHAR uni02CA
ENCODING 714
SWIDTH 614 0
DWIDTH 6 0
BBX 2 2 2 7
BITMAP
40
80
ENDCHAR
STARTCHAR uni02CB
ENCODING 715
SWIDTH 614 0
DWIDTH 6 0
BBX 2 2 2 7
BITMAP
80
40
ENDCHAR
STARTCHAR uni02CD
ENCODING 717
SWIDTH 614 0
DWIDTH 6 0
BBX 3 1 2 -2
BITMAP
E0
ENDCHAR
STARTCHAR uni02CE
ENCODING 718
SWIDTH 614 0
DWIDTH 6 0
BBX 2 2 2 -3
BITMAP
80
40
ENDCHAR
STARTCHAR uni02CF
ENCODING 719
SWIDTH 614 0
DWIDTH 6 0
BBX 2 2 2 -3
BITMAP
40
80
ENDCHAR
STARTCHAR breve
ENCODING 728
SWIDTH 614 0
DWIDTH 6 0
BBX 4 2 1 7
BITMAP
90
60
ENDCHAR
STARTCHAR dotaccent
ENCODING 729
SWIDTH 614 0
DWIDTH 6 0
BBX 1 2 3 7
BITMAP
80
80
ENDCHAR
STARTCHAR ring
ENCODING 730
SWIDTH 614 0
DWIDTH 6 0
BBX 3 3 2 6
BITMAP
40
A0
40
ENDCHAR
STARTCHAR ogonek
ENCODING 731
SWIDTH 614 0
DWIDTH 6 0
BBX 3 2 2 -2
BITMAP
80
60
ENDCHAR
STARTCHAR tilde
ENCODING 732
SWIDTH 614 0
DWIDTH 6 0
BBX 5 2 1 7
BITMAP
68
B0
ENDCHAR
STARTCHAR hungarumlaut
ENCODING 733
SWIDTH 614 0
DWIDTH 6 0
BBX 5 2 1 7
BITMAP
48
90
ENDCHAR
STARTCHAR uni02EE
ENCODING 750
SWIDTH 373 0
DWIDTH 4 0
BBX 4 3 0 5
BITMAP
50
50
A0
ENDCHAR
STARTCHAR uni037E
ENCODING 894
SWIDTH 316 0
DWIDTH 2 0
BBX 2 8 0 -2
BITMAP
40
40
00
00
40
40
40
80
ENDCHAR
STARTCHAR tonos
ENCODING 900
SWIDTH 614 0
DWIDTH 6 0
BBX 2 2 2 7
BITMAP
40
80
ENDCHAR
STARTCHAR dieresistonos
ENCODING 901
SWIDTH 614 0
DWIDTH 6 0
BBX 4 4 1 7
BITMAP
20
40
00
90
ENDCHAR
STARTCHAR anoteleia
ENCODING 903
SWIDTH 316 0
DWIDTH 7 0
BBX 2 2 3 2
BITMAP
C0
C0
ENDCHAR
STARTCHAR mu
ENCODING 956
SWIDTH 627 0
DWIDTH 6 0
BBX 4 8 1 -2
BITMAP
90
90
90
90
B0
D0
80
80
ENDCHAR
STARTCHAR uni1E00
ENCODING 7680
SWIDTH 690 0
DWIDTH 7 0
BBX 5 11 1 -4
BITMAP
20
20
50
50
F8
88
88
00
20
50
20
ENDCHAR
STARTCHAR uni1E01
ENCODING 7681
SWIDTH 552 0
DWIDTH 6 0
BBX 5 10 1 -4
BITMAP
60
10
70
90
90
68
00
20
50
20
ENDCHAR
STARTCHAR uni1E02
ENCODING 7682
SWIDTH 575 0
DWIDTH 6 0
BBX 4 10 1 0
BITMAP
40
40
00
E0
90
90
E0
90
90
E0
ENDCHAR
STARTCHAR uni1E03
ENCODING 7683
SWIDTH 630 0
DWIDTH 6 0
BBX 4 11 1 0
BITMAP
40
40
00
80
80
A0
D0
90
90
90
E0
ENDCHAR
STARTCHAR uni1E04
ENCODING 7684
SWIDTH 575 0
DWIDTH 6 0
BBX 4 10 1 -3
BITMAP
E0
90
90
E0
90
90
E0
00
40
40
ENDCHAR
STARTCHAR uni1E05
ENCODING 7685
SWIDTH 630 0
DWIDTH 6 0
BBX 4 11 1 -3
BITMAP
80
80
A0
D0
90
90
90
E0
00
40
40
ENDCHAR
STARTCHAR uni1E06
ENCODING 7686
SWIDTH 575 0
DWIDTH 6 0
BBX 4 9 1 -2
BITMAP
E0
90
90
E0
90
90
E0
00
E0
ENDCHAR
STARTCHAR uni1E07
ENCODING 7687
SWIDTH 630 0
DWIDTH 6 0
BBX 4 10 1 -2
BITMAP
80
80
A0
D0
90
90
90
E0
00
E0
ENDCHAR
STARTCHAR uni1E08
ENCODING 7688
SWIDTH 692 0
DWIDTH 7 0
BBX 5 12 1 -2
BITMAP
10
20
00
38
40
80
80
80
40
38
10
60
ENDCHAR
STARTCHAR uni1E09
ENCODING 7689
SWIDTH 518 0
DWIDTH 6 0
BBX 4 11 1 -2
BITMAP
20
40
00
70
80
80
80
80
70
20
C0
ENDCHAR
STARTCHAR uni1E0A
ENCODING 7690
SWIDTH 749 0
DWIDTH 8 0
BBX 6 10 1 0
BITMAP
20
20
00
F0
88
84
84
84
88
F0
ENDCHAR
STARTCHAR uni1E0B
ENCODING 7691
SWIDTH 630 0
DWIDTH 6 0
BBX 4 11 1 0
BITMAP
20
20
00
10
10
70
90
90
90
B0
50
ENDCHAR
STARTCHAR uni1E0C
ENCODING 7692
SWIDTH 749 0
DWIDTH 8 0
BBX 6 10 1 -3
BITMAP
F0
88
84
84
84
88
F0
00
20
20
ENDCHAR
STARTCHAR uni1E0D
ENCODING 7693
SWIDTH 630 0
DWIDTH 6 0
BBX 4 11 1 -3
BITMAP
10
10
70
90
90
90
B0
50
00
20
20
ENDCHAR
STARTCHAR uni1E0E
ENCODING 7694
SWIDTH 749 0
DWIDTH 8 0
BBX 6 9 1 -2
BITMAP
F0
88
84
84
84
88
F0
00
70
ENDCHAR
STARTCHAR uni1E0F
ENCODING 7695
SWIDTH 630 0
DWIDTH 6 0
BBX 4 10 1 -2
BITMAP
10
10
70
90
90
90
B0
50
00
70
ENDCHAR
STARTCHAR uni1E10
ENCODING 7696
SWIDTH 749 0
DWIDTH 8 0
BBX 6 9 1 -2
BITMAP
F0
88
84
84
84
88
F0
20
C0
ENDCHAR
STARTCHAR uni1E11
ENCODING 7697
SWIDTH 630 0
DWIDTH 6 0
BBX 4 10 1 -2
BITMAP
10
10
70
90
90
90
B0
50
20
C0
ENDCHAR
STARTCHAR uni1E12
ENCODING 7698
SWIDTH 749 0
DWIDTH 8 0
BBX 6 10 1 -3
BITMAP
F0
88
84
84
84
88
F0
00
20
50
ENDCHAR
STARTCHAR uni1E13
ENCODING 7699
SWIDTH 630 0
DWIDTH 6 0
BBX 4 11 1 -3
BITMAP
10
10
70
90
90
90
B0
50
00
20
50
ENDCHAR
STARTCHAR uni1E14
ENCODING 7700
SWIDTH 542 0
DWIDTH 6 0
BBX 4 12 1 0
BITMAP
40
20
00
E0
00
F0
80
80
E0
80
80
F0
ENDCHAR
STARTCHAR uni1E15
ENCODING 7701
SWIDTH 557 0
DWIDTH 6 0
BBX 4 11 1 0
BITMAP
40
20
00
70
00
60
90
F0
80
80
70
ENDCHAR
STARTCHAR uni1E16
ENCODING 7702
SWIDTH 542 0
DWIDTH 6 0
BBX 4 12 1 0
BITMAP
20
40
00
E0
00
F0
80
80
E0
80
80
F0
ENDCHAR
STARTCHAR uni1E17
ENCODING 7703
SWIDTH 557 0
DWIDTH 6 0
BBX 4 11 1 0
BITMAP
10
20
00
70
00
60
90
F0
80
80
70
ENDCHAR
STARTCHAR uni1E18
ENCODING 7704
SWIDTH 542 0
DWIDTH 6 0
BBX 4 10 1 -3
BITMAP
F0
80
80
E0
80
80
F0
00
40
A0
ENDCHAR
STARTCHAR uni1E19
ENCODING 7705
SWIDTH 557 0
DWIDTH 6 0
BBX 4 9 1 -3
BITMAP
60
90
F0
80
80
70
00
20
50
ENDCHAR
STARTCHAR uni1E1A
ENCODING 7706
SWIDTH 542 0
DWIDTH 6 0
BBX 5 10 0 -3
BITMAP
78
40
40
70
40
40
78
00
68
B0
ENDCHAR
STARTCHAR uni1E1B
ENCODING 7707
SWIDTH 557 0
DWIDTH 6 0
BBX 5 9 0 -3
BITMAP
30
48
78
40
40
38
00
68
B0
ENDCHAR
STARTCHAR uni1E1C
ENCODING 7708
SWIDTH 542 0
DWIDTH 6 0
BBX 4 12 1 -2
BITMAP
90
60
00
F0
80
80
E0
80
80
F0
20
C0
ENDCHAR
STARTCHAR uni1E1D
ENCODING 7709
SWIDTH 557 0
DWIDTH 6 0
BBX 4 11 1 -2
BITMAP
90
60
00
60
90
F0
80
80
70
20
C0
ENDCHAR
STARTCHAR uni1E1E
ENCODING 7710
SWIDTH 536 0
DWIDTH 5 0
BBX 4 10 1 0
BITMAP
40
40
00
F0
80
80
E0
80
80
80
ENDCHAR
STARTCHAR uni1E1F
ENCODING 7711
SWIDTH 367 0
DWIDTH 4 0
BBX 4 11 0 0
BITMAP
20
20
00
30
40
F0
40
40
40
40
40
ENDCHAR
STARTCHAR uni1E20
ENCODING 7712
SWIDTH 723 0
DWIDTH 7 0
BBX 5 9 1 0
BITMAP
70
00
38
40
80
80
88
48
38
ENDCHAR
STARTCHAR uni1E21
ENCODING 7713
SWIDTH 623 0
DWIDTH 6 0
BBX 4 10 1 -2
BITMAP
70
00
70
90
90
90
B0
50
10
60
ENDCHAR
STARTCHAR uni1E22
ENCODING 7714
SWIDTH 735 0
DWIDTH 7 0
BBX 5 10 1 0
BITMAP
20
20
00
88
88
88
F8
88
88
88
ENDCHAR
STARTCHAR uni1E23
ENCODING 7715
SWIDTH 620 0
DWIDTH 6 0
BBX 4 11 1 0
BITMAP
40
40
00
80
80
A0
D0
90
90
90
90
ENDCHAR
STARTCHAR uni1E24
ENCODING 7716
SWIDTH 735 0
DWIDTH 7 0
BBX 5 10 1 -3
BITMAP
88
88
88
F8
88
88
88
00
20
20
ENDCHAR
STARTCHAR uni1E25
ENCODING 7717
SWIDTH 620 0
DWIDTH 6 0
BBX 4 11 1 -3
BITMAP
80
80
A0
D0
90
90
90
90
00
20
20
ENDCHAR
STARTCHAR uni1E26
ENCODING 7718
SWIDTH 735 0
DWIDTH 7 0
BBX 5 9 1 0
BITMAP
48
00
88
88
88
F8
88
88
88
ENDCHAR
STARTCHAR uni1E27
ENCODING 7719
SWIDTH 620 0
DWIDTH 6 0
BBX 5 10 0 0
BITMAP
90
00
40
40
50
68
48
48
48
48
ENDCHAR
STARTCHAR uni1E28
ENCODING 7720
SWIDTH 735 0
DWIDTH 7 0
BBX 5 9 1 -2
BITMAP
88
88
88
F8
88
88
88
20
C0
ENDCHAR
STARTCHAR uni1E29
ENCODING 7721
SWIDTH 620 0
DWIDTH 6 0
BBX 4 10 1 -2
BITMAP
80
80
A0
D0
90
90
90
90
20
C0
ENDCHAR
STARTCHAR uni1E2A
ENCODING 7722
SWIDTH 735 0
DWIDTH 7 0
BBX 5 10 1 -3
BITMAP
88
88
88
F8
88
88
88
00
48
30
ENDCHAR
STARTCHAR uni1E2B
ENCODING 7723
SWIDTH 620 0
DWIDTH 6 0
BBX 4 11 1 -3
BITMAP
80
80
A0
D0
90
90
90
90
00
90
60
ENDCHAR
STARTCHAR uni1E2C
ENCODING 7724
SWIDTH 288 0
DWIDTH 3 0
BBX 5 10 -1 -3
BITMAP
20
20
20
20
20
20
20
00
68
B0
ENDCHAR
STARTCHAR uni1E2D
ENCODING 7725
SWIDTH 289 0
DWIDTH 3 0
BBX 5 11 -1 -3
BITMAP
20
00
20
20
20
20
20
20
00
68
B0
ENDCHAR
STARTCHAR uni1E2E
ENCODING 7726
SWIDTH 288 0
DWIDTH 3 0
BBX 3 11 0 0
BITMAP
20
40
00
A0
00
40
40
40
40
40
40
ENDCHAR
STARTCHAR uni1E2F
ENCODING 7727
SWIDTH 289 0
DWIDTH 3 0
BBX 3 11 0 0
BITMAP
20
40
00
A0
00
40
40
40
40
40
40
ENDCHAR
STARTCHAR uni1E30
ENCODING 7728
SWIDTH 653 0
DWIDTH 7 0
BBX 5 10 1 0
BITMAP
10
20
00
88
90
A0
C0
A0
90
88
ENDCHAR
STARTCHAR uni1E31
ENCODING 7729
SWIDTH 585 0
DWIDTH 6 0
BBX 5 11 1 0
BITMAP
20
40
00
80
80
90
A0
C0
A0
90
88
ENDCHAR
STARTCHAR uni1E32
ENCODING 7730
SWIDTH 653 0
DWIDTH 7 0
BBX 5 10 1 -3
BITMAP
88
90
A0
C0
A0
90
88
00
20
20
ENDCHAR
STARTCHAR uni1E33
ENCODING 7731
SWIDTH 585 0
DWIDTH 6 0
BBX 5 11 1 -3
BITMAP
80
80
90
A0
C0
A0
90
88
00
20
20
ENDCHAR
STARTCHAR uni1E34
ENCODING 7732
SWIDTH 653 0
DWIDTH 7 0
BBX 5 9 1 -2
BITMAP
88
90
A0
C0
A0
90
88
00
70
ENDCHAR
STARTCHAR uni1E35
ENCODING 7733
SWIDTH 585 0
DWIDTH 6 0
BBX 5 10 1 -2
BITMAP
80
80
90
A0
C0
A0
90
88
00
70
ENDCHAR
STARTCHAR uni1E36
ENCODING 7734
SWIDTH 533 0
DWIDTH 5 0
BBX 4 10 1 -3
BITMAP
80
80
80
80
80
80
F0
00
40
40
ENDCHAR
STARTCHAR uni1E37
ENCODING 7735
SWIDTH 289 0
DWIDTH 3 0
BBX 1 11 1 -3
BITMAP
80
80
80
80
80
80
80
80
00
80
80
ENDCHAR
STARTCHAR uni1E38
ENCODING 7736
SWIDTH 533 0
DWIDTH 5 0
BBX 4 12 1 -3
BITMAP
E0
00
80
80
80
80
80
80
F0
00
40
40
ENDCHAR
STARTCHAR uni1E39
ENCODING 7737
SWIDTH 289 0
DWIDTH 3 0
BBX 3 13 0 -3
BITMAP
E0
00
40
40
40
40
40
40
40
40
00
40
40
ENDCHAR
STARTCHAR uni1E3A
ENCODING 7738
SWIDTH 533 0
DWIDTH 5 0
BBX 4 9 1 -2
BITMAP
80
80
80
80
80
80
F0
00
E0
ENDCHAR
STARTCHAR uni1E3B
ENCODING 7739
SWIDTH 289 0
DWIDTH 3 0
BBX 3 10 0 -2
BITMAP
40
40
40
40
40
40
40
40
00
E0
ENDCHAR
STARTCHAR uni1E3C
ENCODING 7740
SWIDTH 533 0
DWIDTH 5 0
BBX 4 10 1 -3
BITMAP
80
80
80
80
80
80
F0
00
40
A0
ENDCHAR
STARTCHAR uni1E3D
ENCODING 7741
SWIDTH 289 0
DWIDTH 3 0
BBX 3 11 0 -3
BITMAP
40
40
40
40
40
40
40
40
00
40
A0
ENDCHAR
STARTCHAR uni1E3E
ENCODING 7742
SWIDTH 861 0
DWIDTH 9 0
BBX 7 10 1 0
BITMAP
08
10
00
C6
C6
AA
BA
92
92
82
ENDCHAR
STARTCHAR uni1E3F
ENCODING 7743
SWIDTH 934 0
DWIDTH 9 0
BBX 7 9 1 0
BITMAP
08
10
00
A4
DA
92
92
92
92
ENDCHAR
STARTCHAR uni1E40
ENCODING 7744
SWIDTH 861 0
DWIDTH 9 0
BBX 7 10 1 0
BITMAP
10
10
00
C6
C6
AA
BA
92
92
82
ENDCHAR
STARTCHAR uni1E41
ENCODING 7745
SWIDTH 934 0
DWIDTH 9 0
BBX 7 9 1 0
BITMAP
10
10
00
A4
DA
92
92
92
92
ENDCHAR
STARTCHAR uni1E42
ENCODING 7746
SWIDTH 861 0
DWIDTH 9 0
BBX 7 10 1 -3
BITMAP
C6
C6
AA
BA
92
92
82
00
10
10
ENDCHAR
STARTCHAR uni1E43
ENCODING 7747
SWIDTH 934 0
DWIDTH 9 0
BBX 7 9 1 -3
BITMAP
A4
DA
92
92
92
92
00
10
10
ENDCHAR
STARTCHAR uni1E44
ENCODING 7748
SWIDTH 741 0
DWIDTH 8 0
BBX 6 10 1 0
BITMAP
20
20
00
84
C4
A4
94
94
8C
84
ENDCHAR
STARTCHAR uni1E45
ENCODING 7749
SWIDTH 620 0
DWIDTH 6 0
BBX 4 9 1 0
BITMAP
40
40
00
A0
D0
90
90
90
90
ENDCHAR
STARTCHAR uni1E46
ENCODING 7750
SWIDTH 741 0
DWIDTH 8 0
BBX 6 10 1 -3
BITMAP
84
C4
A4
94
94
8C
84
00
10
10
ENDCHAR
STARTCHAR uni1E47
ENCODING 7751
SWIDTH 620 0
DWIDTH 6 0
BBX 4 9 1 -3
BITMAP
A0
D0
90
90
90
90
00
20
20
ENDCHAR
STARTCHAR uni1E48
ENCODING 7752
SWIDTH 741 0
DWIDTH 8 0
BBX 6 9 1 -2
BITMAP
84
C4
A4
94
94
8C
84
00
38
ENDCHAR
STARTCHAR uni1E49
ENCODING 7753
SWIDTH 620 0
DWIDTH 6 0
BBX 4 8 1 -2
BITMAP
A0
D0
90
90
90
90
00
70
ENDCHAR
STARTCHAR uni1E4A
ENCODING 7754
SWIDTH 741 0
DWIDTH 8 0
BBX 6 10 1 -3
BITMAP
84
C4
A4
94
94
8C
84
00
10
28
ENDCHAR
STARTCHAR uni1E4B
ENCODING 7755
SWIDTH 620 0
DWIDTH 6 0
BBX 4 9 1 -3
BITMAP
A0
D0
90
90
90
90
00
20
50
ENDCHAR
STARTCHAR uni1E4C
ENCODING 7756
SWIDTH 777 0
DWIDTH 8 0
BBX 6 12 1 0
BITMAP
08
10
00
34
58
00
30
48
84
84
48
30
ENDCHAR
STARTCHAR uni1E4D
ENCODING 7757
SWIDTH 614 0
DWIDTH 6 0
BBX 5 12 0 0
BITMAP
10
20
00
68
B0
00
30
48
48
48
48
30
ENDCHAR
STARTCHAR uni1E4E
ENCODING 7758
SWIDTH 777 0
DWIDTH 8 0
BBX 6 11 1 0
BITMAP
48
00
34
58
00
30
48
84
84
48
30
ENDCHAR
STARTCHAR uni1E4F
ENCODING 7759
SWIDTH 614 0
DWIDTH 6 0
BBX 5 11 0 0
BITMAP
48
00
68
B0
00
30
48
48
48
48
30
ENDCHAR
STARTCHAR uni1E50
ENCODING 7760
SWIDTH 777 0
DWIDTH 8 0
BBX 6 12 1 0
BITMAP
20
10
00
38
00
30
48
84
84
84
48
30
ENDCHAR
STARTCHAR uni1E51
ENCODING 7761
SWIDTH 614 0
DWIDTH 6 0
BBX 4 11 1 0
BITMAP
40
20
00
70
00
60
90
90
90
90
60
ENDCHAR
STARTCHAR uni1E52
ENCODING 7762
SWIDTH 777 0
DWIDTH 8 0
BBX 6 12 1 0
BITMAP
08
10
00
38
00
30
48
84
84
84
48
30
ENDCHAR
STARTCHAR uni1E53
ENCODING 7763
SWIDTH 614 0
DWIDTH 6 0
BBX 4 11 1 0
BITMAP
10
20
00
70
00
60
90
90
90
90
60
ENDCHAR
STARTCHAR uni1E54
ENCODING 7764
SWIDTH 553 0
DWIDTH 6 0
BBX 4 10 1 0
BITMAP
20
40
00
E0
90
90
E0
80
80
80
ENDCHAR
STARTCHAR uni1E55
ENCODING 7765
SWIDTH 630 0
DWIDTH 6 0
BBX 4 11 1 -2
BITMAP
20
40
00
A0
D0
90
90
90
E0
80
80
ENDCHAR
STARTCHAR uni1E56
ENCODING 7766
SWIDTH 553 0
DWIDTH 6 0
BBX 4 10 1 0
BITMAP
40
40
00
E0
90
90
E0
80
80
80
ENDCHAR
STARTCHAR uni1E57
ENCODING 7767
SWIDTH 630 0
DWIDTH 6 0
BBX 4 11 1 -2
BITMAP
40
40
00
A0
D0
90
90
90
E0
80
80
ENDCHAR
STARTCHAR uni1E58
ENCODING 7768
SWIDTH 633 0
DWIDTH 6 0
BBX 5 10 1 0
BITMAP
40
40
00
E0
90
90
E0
A0
90
88
ENDCHAR
STARTCHAR uni1E59
ENCODING 7769
SWIDTH 409 0
DWIDTH 5 0
BBX 3 9 1 0
BITMAP
40
40
00
A0
E0
80
80
80
80
ENDCHAR
STARTCHAR uni1E5A
ENCODING 7770
SWIDTH 633 0
DWIDTH 6 0
BBX 5 10 1 -3
BITMAP
E0
90
90
E0
A0
90
88
00
20
20
ENDCHAR
STARTCHAR uni1E5B
ENCODING 7771
SWIDTH 409 0
DWIDTH 5 0
BBX 3 9 1 -3
BITMAP
A0
E0
80
80
80
80
00
80
80
ENDCHAR
STARTCHAR uni1E5C
ENCODING 7772
SWIDTH 633 0
DWIDTH 6 0
BBX 5 12 1 -3
BITMAP
70
00
E0
90
90
E0
A0
90
88
00
20
20
ENDCHAR
STARTCHAR uni1E5D
ENCODING 7773
SWIDTH 409 0
DWIDTH 5 0
BBX 3 11 1 -3
BITMAP
E0
00
A0
E0
80
80
80
80
00
80
80
ENDCHAR
STARTCHAR uni1E5E
ENCODING 7774
SWIDTH 633 0
DWIDTH 6 0
BBX 5 9 1 -2
BITMAP
E0
90
90
E0
A0
90
88
00
70
ENDCHAR
STARTCHAR uni1E5F
ENCODING 7775
SWIDTH 409 0
DWIDTH 5 0
BBX 4 8 0 -2
BITMAP
50
70
40
40
40
40
00
E0
ENDCHAR
STARTCHAR uni1E60
ENCODING 7776
SWIDTH 539 0
DWIDTH 6 0
BBX 4 10 1 0
BITMAP
20
20
00
70
80
80
60
10
10
E0
ENDCHAR
STARTCHAR uni1E61
ENCODING 7777
SWIDTH 510 0
DWIDTH 5 0
BBX 3 9 1 0
BITMAP
40
40
00
60
80
C0
60
20
C0
ENDCHAR
STARTCHAR uni1E62
ENCODING 7778
SWIDTH 539 0
DWIDTH 6 0
BBX 4 10 1 -3
BITMAP
70
80
80
60
10
10
E0
00
20
20
ENDCHAR
STARTCHAR uni1E63
ENCODING 7779
SWIDTH 510 0
DWIDTH 5 0
BBX 3 9 1 -3
BITMAP
60
80
C0
60
20
C0
00
40
40
ENDCHAR
STARTCHAR uni1E64
ENCODING 7780
SWIDTH 539 0
DWIDTH 6 0
BBX 4 13 1 0
BITMAP
20
20
00
20
40
00
70
80
80
60
10
10
E0
ENDCHAR
STARTCHAR uni1E65
ENCODING 7781
SWIDTH 510 0
DWIDTH 5 0
BBX 3 12 1 0
BITMAP
40
40
00
20
40
00
60
80
C0
60
20
C0
ENDCHAR
STARTCHAR uni1E66
ENCODING 7782
SWIDTH 539 0
DWIDTH 6 0
BBX 4 12 1 0
BITMAP
20
20
00
50
20
00
70
80
C0
30
10
E0
ENDCHAR
STARTCHAR uni1E67
ENCODING 7783
SWIDTH 510 0
DWIDTH 5 0
BBX 3 12 1 0
BITMAP
40
40
00
A0
40
00
60
80
C0
60
20
C0
ENDCHAR
STARTCHAR uni1E68
ENCODING 7784
SWIDTH 539 0
DWIDTH 6 0
BBX 4 13 1 -3
BITMAP
40
40
00
70
80
80
60
10
10
E0
00
20
20
ENDCHAR
STARTCHAR uni1E69
ENCODING 7785
SWIDTH 510 0
DWIDTH 5 0
BBX 3 12 1 -3
BITMAP
40
40
00
60
80
C0
60
20
C0
00
40
40
ENDCHAR
STARTCHAR uni1E6A
ENCODING 7786
SWIDTH 633 0
DWIDTH 7 0
BBX 5 10 1 0
BITMAP
20
20
00
F8
20
20
20
20
20
20
ENDCHAR
STARTCHAR uni1E6B
ENCODING 7787
SWIDTH 374 0
DWIDTH 4 0
BBX 4 10 0 0
BITMAP
40
40
00
40
F0
40
40
40
40
30
ENDCHAR
STARTCHAR uni1E6C
ENCODING 7788
SWIDTH 633 0
DWIDTH 7 0
BBX 5 10 1 -3
BITMAP
F8
20
20
20
20
20
20
00
20
20
ENDCHAR
STARTCHAR uni1E6D
ENCODING 7789
SWIDTH 374 0
DWIDTH 4 0
BBX 4 10 0 -3
BITMAP
40
F0
40
40
40
40
30
00
20
20
ENDCHAR
STARTCHAR uni1E6E
ENCODING 7790
SWIDTH 633 0
DWIDTH 7 0
BBX 5 9 1 -2
BITMAP
F8
20
20
20
20
20
20
00
70
ENDCHAR
STARTCHAR uni1E6F
ENCODING 7791
SWIDTH 374 0
DWIDTH 4 0
BBX 4 9 0 -2
BITMAP
40
F0
40
40
40
40
30
00
70
ENDCHAR
STARTCHAR uni1E70
ENCODING 7792
SWIDTH 633 0
DWIDTH 7 0
BBX 5 10 1 -3
BITMAP
F8
20
20
20
20
20
20
00
20
50
ENDCHAR
STARTCHAR uni1E71
ENCODING 7793
SWIDTH 374 0
DWIDTH 4 0
BBX 4 10 0 -3
BITMAP
40
F0
40
40
40
40
30
00
20
50
ENDCHAR
STARTCHAR uni1E72
ENCODING 7794
SWIDTH 693 0
DWIDTH 7 0
BBX 5 9 1 -2
BITMAP
88
88
88
88
88
88
70
00
48
ENDCHAR
STARTCHAR uni1E73
ENCODING 7795
SWIDTH 620 0
DWIDTH 6 0
BBX 4 8 1 -2
BITMAP
90
90
90
90
B0
50
00
90
ENDCHAR
STARTCHAR uni1E74
ENCODING 7796
SWIDTH 693 0
DWIDTH 7 0
BBX 5 10 1 -3
BITMAP
88
88
88
88
88
88
70
00
68
B0
ENDCHAR
STARTCHAR uni1E75
ENCODING 7797
SWIDTH 620 0
DWIDTH 6 0
BBX 5 9 0 -3
BITMAP
48
48
48
48
58
28
00
68
B0
ENDCHAR
STARTCHAR uni1E76
ENCODING 7798
SWIDTH 693 0
DWIDTH 7 0
BBX 5 10 1 -3
BITMAP
88
88
88
88
88
88
70
00
20
50
ENDCHAR
STARTCHAR uni1E77
ENCODING 7799
SWIDTH 620 0
DWIDTH 6 0
BBX 4 9 1 -3
BITMAP
90
90
90
90
B0
50
00
20
50
ENDCHAR
STARTCHAR uni1E78
ENCODING 7800
SWIDTH 693 0
DWIDTH 7 0
BBX 5 13 1 0
BITMAP
10
20
00
68
B0
00
88
88
88
88
88
88
70
ENDCHAR
STARTCHAR uni1E79
ENCODING 7801
SWIDTH 620 0
DWIDTH 6 0
BBX 5 12 1 0
BITMAP
10
20
00
68
B0
00
90
90
90
90
B0
50
ENDCHAR
STARTCHAR uni1E7A
ENCODING 7802
SWIDTH 693 0
DWIDTH 7 0
BBX 5 11 1 0
BITMAP
48
00
70
00
88
88
88
88
88
88
70
ENDCHAR
STARTCHAR uni1E7B
ENCODING 7803
SWIDTH 620 0
DWIDTH 6 0
BBX 4 10 1 0
BITMAP
90
00
70
00
90
90
90
90
B0
50
ENDCHAR
STARTCHAR uni1E7C
ENCODING 7804
SWIDTH 654 0
DWIDTH 7 0
BBX 5 10 1 0
BITMAP
68
B0
00
88
88
88
50
50
20
20
ENDCHAR
STARTCHAR uni1E7D
ENCODING 7805
SWIDTH 572 0
DWIDTH 6 0
BBX 5 9 1 0
BITMAP
68
B0
00
90
90
90
90
60
60
ENDCHAR
STARTCHAR uni1E7E
ENCODING 7806
SWIDTH 654 0
DWIDTH 7 0
BBX 5 10 1 -3
BITMAP
88
88
88
50
50
20
20
00
20
20
ENDCHAR
STARTCHAR uni1E7F
ENCODING 7807
SWIDTH 572 0
DWIDTH 6 0
BBX 4 9 1 -3
BITMAP
90
90
90
90
60
60
00
20
20
ENDCHAR
STARTCHAR Wgrave
ENCODING 7808
SWIDTH 855 0
DWIDTH 9 0
BBX 7 10 1 0
BITMAP
20
10
00
82
92
92
AA
44
44
44
ENDCHAR
STARTCHAR wgrave
ENCODING 7809
SWIDTH 840 0
DWIDTH 9 0
BBX 7 9 1 0
BITMAP
20
10
00
82
92
92
AA
44
44
ENDCHAR
STARTCHAR Wacute
ENCODING 7810
SWIDTH 855 0
DWIDTH 9 0
BBX 7 10 1 0
BITMAP
08
10
00
82
92
92
AA
44
44
44
ENDCHAR
STARTCHAR wacute
ENCODING 7811
SWIDTH 840 0
DWIDTH 9 0
BBX 7 9 1 0
BITMAP
08
10
00
82
92
92
AA
44
44
ENDCHAR
STARTCHAR Wdieresis
ENCODING 7812
SWIDTH 855 0
DWIDTH 9 0
BBX 7 9 1 0
BITMAP
24
00
82
92
92
AA
44
44
44
ENDCHAR
STARTCHAR wdieresis
ENCODING 7813
SWIDTH 840 0
DWIDTH 9 0
BBX 7 8 1 0
BITMAP
24
00
82
92
92
AA
44
44
ENDCHAR
STARTCHAR uni1E86
ENCODING 7814
SWIDTH 855 0
DWIDTH 9 0
BBX 7 10 1 0
BITMAP
10
10
00
82
92
92
AA
44
44
44
ENDCHAR
STARTCHAR uni1E87
ENCODING 7815
SWIDTH 840 0
DWIDTH 9 0
BBX 7 9 1 0
BITMAP
10
10
00
82
92
92
AA
44
44
ENDCHAR
STARTCHAR uni1E88
ENCODING 7816
SWIDTH 855 0
DWIDTH 9 0
BBX 7 10 1 -3
BITMAP
82
92
92
AA
44
44
44
00
10
10
ENDCHAR
STARTCHAR uni1E89
ENCODING 7817
SWIDTH 840 0
DWIDTH 9 0
BBX 7 9 1 -3
BITMAP
82
92
92
AA
44
44
00
10
10
ENDCHAR
STARTCHAR uni1E8A
ENCODING 7818
SWIDTH 626 0
DWIDTH 7 0
BBX 5 10 1 0
BITMAP
20
20
00
88
88
50
20
50
88
88
ENDCHAR
STARTCHAR uni1E8B
ENCODING 7819
SWIDTH 613 0
DWIDTH 6 0
BBX 4 9 1 0
BITMAP
20
20
00
90
90
60
60
90
90
ENDCHAR
STARTCHAR uni1E8C
ENCODING 7820
SWIDTH 626 0
DWIDTH 7 0
BBX 5 9 1 0
BITMAP
48
00
88
88
50
20
50
88
88
ENDCHAR
STARTCHAR uni1E8D
ENCODING 7821
SWIDTH 613 0
DWIDTH 6 0
BBX 4 8 1 0
BITMAP
90
00
90
90
60
60
90
90
ENDCHAR
STARTCHAR uni1E8E
ENCODING 7822
SWIDTH 623 0
DWIDTH 7 0
BBX 5 10 1 0
BITMAP
20
20
00
88
88
50
20
20
20
20
ENDCHAR
STARTCHAR uni1E8F
ENCODING 7823
SWIDTH 568 0
DWIDTH 6 0
BBX 4 11 1 -2
BITMAP
20
20
00
90
90
90
90
60
60
40
C0
ENDCHAR
STARTCHAR uni1E90
ENCODING 7824
SWIDTH 605 0
DWIDTH 6 0
BBX 4 10 1 0
BITMAP
20
50
00
F0
10
20
60
40
80
F0
ENDCHAR
STARTCHAR uni1E91
ENCODING 7825
SWIDTH 573 0
DWIDTH 6 0
BBX 4 9 1 0
BITMAP
20
50
00
F0
10
20
40
80
F0
ENDCHAR
STARTCHAR uni1E92
ENCODING 7826
SWIDTH 605 0
DWIDTH 6 0
BBX 4 10 1 -3
BITMAP
F0
10
20
60
40
80
F0
00
40
40
ENDCHAR
STARTCHAR uni1E93
ENCODING 7827
SWIDTH 573 0
DWIDTH 6 0
BBX 4 9 1 -3
BITMAP
F0
10
20
40
80
F0
00
40
40
ENDCHAR
STARTCHAR uni1E94
ENCODING 7828
SWIDTH 605 0
DWIDTH 6 0
BBX 4 9 1 -2
BITMAP
F0
10
20
60
40
80
F0
00
E0
ENDCHAR
STARTCHAR uni1E95
ENCODING 7829
SWIDTH 573 0
DWIDTH 6 0
BBX 4 8 1 -2
BITMAP
F0
10
20
40
80
F0
00
E0
ENDCHAR
STARTCHAR uni1E96
ENCODING 7830
SWIDTH 620 0
DWIDTH 6 0
BBX 4 10 1 -2
BITMAP
80
80
A0
D0
90
90
90
90
00
70
ENDCHAR
STARTCHAR uni1E97
ENCODING 7831
SWIDTH 374 0
DWIDTH 4 0
BBX 4 9 0 0
BITMAP
90
00
40
F0
40
40
40
40
30
ENDCHAR
STARTCHAR uni1E98
ENCODING 7832
SWIDTH 840 0
DWIDTH 9 0
BBX 7 10 1 0
BITMAP
10
28
10
00
82
92
92
AA
44
44
ENDCHAR
STARTCHAR uni1E99
ENCODING 7833
SWIDTH 568 0
DWIDTH 6 0
BBX 4 12 1 -2
BITMAP
20
50
20
00
90
90
90
90
60
60
40
C0
ENDCHAR
STARTCHAR uni1EA0
ENCODING 7840
SWIDTH 690 0
DWIDTH 7 0
BBX 5 10 1 -3
BITMAP
20
20
50
50
F8
88
88
00
20
20
ENDCHAR
STARTCHAR uni1EA1
ENCODING 7841
SWIDTH 552 0
DWIDTH 6 0
BBX 5 9 1 -3
BITMAP
60
10
70
90
90
68
00
20
20
ENDCHAR
STARTCHAR uni1EA4
ENCODING 7844
SWIDTH 690 0
DWIDTH 7 0
BBX 5 12 1 0
BITMAP
10
20
00
20
50
00
20
50
50
F8
88
88
ENDCHAR
STARTCHAR uni1EA5
ENCODING 7845
SWIDTH 552 0
DWIDTH 6 0
BBX 5 12 1 0
BITMAP
10
20
00
20
50
00
60
10
70
90
90
68
ENDCHAR
STARTCHAR uni1EA6
ENCODING 7846
SWIDTH 690 0
DWIDTH 7 0
BBX 5 12 1 0
BITMAP
40
20
00
20
50
00
20
50
50
F8
88
88
ENDCHAR
STARTCHAR uni1EA7
ENCODING 7847
SWIDTH 552 0
DWIDTH 6 0
BBX 5 12 1 0
BITMAP
40
20
00
20
50
00
60
10
70
90
90
68
ENDCHAR
STARTCHAR uni1EAA
ENCODING 7850
SWIDTH 690 0
DWIDTH 7 0
BBX 5 12 1 0
BITMAP
68
B0
00
20
50
00
20
50
50
F8
88
88
ENDCHAR
STARTCHAR uni1EAB
ENCODING 7851
SWIDTH 552 0
DWIDTH 6 0
BBX 5 12 1 0
BITMAP
68
B0
00
20
50
00
60
10
70
90
90
68
ENDCHAR
STARTCHAR uni1EAC
ENCODING 7852
SWIDTH 690 0
DWIDTH 7 0
BBX 5 13 1 -3
BITMAP
20
50
00
20
20
50
50
F8
88
88
00
20
20
ENDCHAR
STARTCHAR uni1EAD
ENCODING 7853
SWIDTH 552 0
DWIDTH 6 0
BBX 5 12 1 -3
BITMAP
20
50
00
60
10
70
90
90
68
00
20
20
ENDCHAR
STARTCHAR uni1EAE
ENCODING 7854
SWIDTH 690 0
DWIDTH 7 0
BBX 5 13 1 0
BITMAP
10
20
00
48
30
00
20
20
50
50
F8
88
88
ENDCHAR
STARTCHAR uni1EAF
ENCODING 7855
SWIDTH 552 0
DWIDTH 6 0
BBX 5 12 1 0
BITMAP
10
20
00
48
30
00
60
10
70
90
90
68
ENDCHAR
STARTCHAR uni1EB0
ENCODING 7856
SWIDTH 690 0
DWIDTH 7 0
BBX 5 13 1 0
BITMAP
20
10
00
48
30
00
20
20
50
50
F8
88
88
ENDCHAR
STARTCHAR uni1EB1
ENCODING 7857
SWIDTH 552 0
DWIDTH 6 0
BBX 5 12 1 0
BITMAP
20
10
00
48
30
00
60
10
70
90
90
68
ENDCHAR
STARTCHAR uni1EB4
ENCODING 7860
SWIDTH 690 0
DWIDTH 7 0
BBX 6 13 1 0
BITMAP
34
58
00
48
30
00
20
20
50
50
F8
88
88
ENDCHAR
STARTCHAR uni1EB5
ENCODING 7861
SWIDTH 552 0
DWIDTH 6 0
BBX 6 12 1 0
BITMAP
34
58
00
48
30
00
60
10
70
90
90
68
ENDCHAR
STARTCHAR uni1EB6
ENCODING 7862
SWIDTH 690 0
DWIDTH 7 0
BBX 5 13 1 -3
BITMAP
48
30
00
20
20
50
50
F8
88
88
00
20
20
ENDCHAR
STARTCHAR uni1EB7
ENCODING 7863
SWIDTH 552 0
DWIDTH 6 0
BBX 5 12 1 -3
BITMAP
48
30
00
60
10
70
90
90
68
00
20
20
ENDCHAR
STARTCHAR uni1EB8
ENCODING 7864
SWIDTH 542 0
DWIDTH 6 0
BBX 4 10 1 -3
BITMAP
F0
80
80
E0
80
80
F0
00
40
40
ENDCHAR
STARTCHAR uni1EB9
ENCODING 7865
SWIDTH 557 0
DWIDTH 6 0
BBX 4 9 1 -3
BITMAP
60
90
F0
80
80
70
00
20
20
ENDCHAR
STARTCHAR uni1EBC
ENCODING 7868
SWIDTH 542 0
DWIDTH 6 0
BBX 5 10 1 0
BITMAP
68
B0
00
F0
80
80
E0
80
80
F0
ENDCHAR
STARTCHAR uni1EBD
ENCODING 7869
SWIDTH 557 0
DWIDTH 6 0
BBX 5 9 1 0
BITMAP
68
B0
00
60
90
F0
80
80
70
ENDCHAR
STARTCHAR uni1EBE
ENCODING 7870
SWIDTH 542 0
DWIDTH 6 0
BBX 4 12 1 0
BITMAP
20
40
00
40
A0
00
F0
80
E0
80
80
F0
ENDCHAR
STARTCHAR uni1EBF
ENCODING 7871
SWIDTH 557 0
DWIDTH 6 0
BBX 4 12 1 0
BITMAP
10
20
00
20
50
00
60
90
F0
80
80
70
ENDCHAR
STARTCHAR uni1EC0
ENCODING 7872
SWIDTH 542 0
DWIDTH 6 0
BBX 4 12 1 0
BITMAP
80
40
00
40
A0
00
F0
80
E0
80
80
F0
ENDCHAR
STARTCHAR uni1EC1
ENCODING 7873
SWIDTH 557 0
DWIDTH 6 0
BBX 4 12 1 0
BITMAP
40
20
00
20
50
00
60
90
F0
80
80
70
ENDCHAR
STARTCHAR uni1EC4
ENCODING 7876
SWIDTH 542 0
DWIDTH 6 0
BBX 5 12 0 0
BITMAP
68
B0
00
20
50
00
78
40
70
40
40
78
ENDCHAR
STARTCHAR uni1EC5
ENCODING 7877
SWIDTH 557 0
DWIDTH 6 0
BBX 5 12 1 0
BITMAP
68
B0
00
20
50
00
60
90
F0
80
80
70
ENDCHAR
STARTCHAR uni1EC6
ENCODING 7878
SWIDTH 542 0
DWIDTH 6 0
BBX 4 13 1 -3
BITMAP
40
A0
00
F0
80
80
E0
80
80
F0
00
40
40
ENDCHAR
STARTCHAR uni1EC7
ENCODING 7879
SWIDTH 557 0
DWIDTH 6 0
BBX 4 12 1 -3
BITMAP
20
50
00
60
90
F0
80
80
70
00
20
20
ENDCHAR
STARTCHAR uni1ECA
ENCODING 7882
SWIDTH 288 0
DWIDTH 3 0
BBX 1 10 1 -3
BITMAP
80
80
80
80
80
80
80
00
80
80
ENDCHAR
STARTCHAR uni1ECB
ENCODING 7883
SWIDTH 289 0
DWIDTH 3 0
BBX 1 11 1 -3
BITMAP
80
00
80
80
80
80
80
80
00
80
80
ENDCHAR
STARTCHAR uni1ECC
ENCODING 7884
SWIDTH 777 0
DWIDTH 8 0
BBX 6 10 1 -3
BITMAP
30
48
84
84
84
48
30
00
10
10
ENDCHAR
STARTCHAR uni1ECD
ENCODING 7885
SWIDTH 614 0
DWIDTH 6 0
BBX 4 9 1 -3
BITMAP
60
90
90
90
90
60
00
20
20
ENDCHAR
STARTCHAR uni1ED0
ENCODING 7888
SWIDTH 777 0
DWIDTH 8 0
BBX 6 12 1 0
BITMAP
10
20
00
20
50
00
30
48
84
84
48
30
ENDCHAR
STARTCHAR uni1ED1
ENCODING 7889
SWIDTH 614 0
DWIDTH 6 0
BBX 4 12 1 0
BITMAP
20
40
00
40
A0
00
60
90
90
90
90
60
ENDCHAR
STARTCHAR uni1ED2
ENCODING 7890
SWIDTH 777 0
DWIDTH 8 0
BBX 6 12 1 0
BITMAP
40
20
00
20
50
00
30
48
84
84
48
30
ENDCHAR
STARTCHAR uni1ED3
ENCODING 7891
SWIDTH 614 0
DWIDTH 6 0
BBX 4 12 1 0
BITMAP
80
40
00
40
A0
00
60
90
90
90
90
60
ENDCHAR
STARTCHAR uni1ED6
ENCODING 7894
SWIDTH 777 0
DWIDTH 8 0
BBX 6 12 1 0
BITMAP
68
B0
00
20
50
00
30
48
84
84
48
30
ENDCHAR
STARTCHAR uni1ED7
ENCODING 7895
SWIDTH 614 0
DWIDTH 6 0
BBX 5 12 0 0
BITMAP
68
B0
00
20
50
00
30
48
48
48
48
30
ENDCHAR
STARTCHAR uni1ED8
ENCODING 7896
SWIDTH 777 0
DWIDTH 8 0
BBX 6 13 1 -3
BITMAP
10
28
00
30
48
84
84
84
48
30
00
10
10
ENDCHAR
STARTCHAR uni1ED9
ENCODING 7897
SWIDTH 614 0
DWIDTH 6 0
BBX 4 12 1 -3
BITMAP
20
50
00
60
90
90
90
90
60
00
20
20
ENDCHAR
STARTCHAR uni1EDA
ENCODING 7898
SWIDTH 777 0
DWIDTH 8 0
BBX 8 10 1 0
BITMAP
04
08
00
31
49
86
84
84
48
30
ENDCHAR
STARTCHAR uni1EDB
ENCODING 7899
SWIDTH 614 0
DWIDTH 6 0
BBX 6 9 1 0
BITMAP
10
20
00
64
94
98
90
90
60
ENDCHAR
STARTCHAR uni1EDC
ENCODING 7900
SWIDTH 777 0
DWIDTH 8 0
BBX 8 10 1 0
BITMAP
10
08
00
31
49
86
84
84
48
30
ENDCHAR
STARTCHAR uni1EDD
ENCODING 7901
SWIDTH 614 0
DWIDTH 6 0
BBX 6 9 1 0
BITMAP
20
10
00
64
94
98
90
90
60
ENDCHAR
STARTCHAR uni1EE0
ENCODING 7904
SWIDTH 777 0
DWIDTH 8 0
BBX 8 10 1 0
BITMAP
1A
2C
00
31
49
86
84
84
48
30
ENDCHAR
STARTCHAR uni1EE1
ENCODING 7905
SWIDTH 614 0
DWIDTH 6 0
BBX 6 9 1 0
BITMAP
34
58
00
64
94
98
90
90
60
ENDCHAR
STARTCHAR uni1EE2
ENCODING 7906
SWIDTH 777 0
DWIDTH 8 0
BBX 8 10 1 -3
BITMAP
31
49
86
84
84
48
30
00
10
10
ENDCHAR
STARTCHAR uni1EE3
ENCODING 7907
SWIDTH 614 0
DWIDTH 6 0
BBX 6 9 1 -3
BITMAP
64
94
98
90
90
60
00
20
20
ENDCHAR
STARTCHAR uni1EE4
ENCODING 7908
SWIDTH 693 0
DWIDTH 7 0
BBX 5 10 1 -3
BITMAP
88
88
88
88
88
88
70
00
20
20
ENDCHAR
STARTCHAR uni1EE5
ENCODING 7909
SWIDTH 620 0
DWIDTH 6 0
BBX 4 9 1 -3
BITMAP
90
90
90
90
B0
50
00
20
20
ENDCHAR
STARTCHAR uni1EE8
ENCODING 7912
SWIDTH 693 0
DWIDTH 7 0
BBX 7 10 1 0
BITMAP
08
10
00
8A
8A
8C
88
88
88
70
ENDCHAR
STARTCHAR uni1EE9
ENCODING 7913
SWIDTH 620 0
DWIDTH 6 0
BBX 6 9 1 0
BITMAP
10
20
00
94
94
98
90
B0
50
ENDCHAR
STARTCHAR uni1EEA
ENCODING 7914
SWIDTH 693 0
DWIDTH 7 0
BBX 7 10 1 0
BITMAP
20
10
00
8A
8A
8C
88
88
88
70
ENDCHAR
STARTCHAR uni1EEB
ENCODING 7915
SWIDTH 620 0
DWIDTH 6 0
BBX 6 9 1 0
BITMAP
20
10
00
94
94
98
90
B0
50
ENDCHAR
STARTCHAR uni1EEE
ENCODING 7918
SWIDTH 693 0
DWIDTH 7 0
BBX 7 10 1 0
BITMAP
34
58
00
8A
8A
8C
88
88
88
70
ENDCHAR
STARTCHAR uni1EEF
ENCODING 7919
SWIDTH 620 0
DWIDTH 6 0
BBX 6 9 1 0
BITMAP
34
58
00
94
94
98
90
B0
50
ENDCHAR
STARTCHAR uni1EF0
ENCODING 7920
SWIDTH 693 0
DWIDTH 7 0
BBX 7 10 1 -3
BITMAP
8A
8A
8C
88
88
88
70
00
20
20
ENDCHAR
STARTCHAR uni1EF1
ENCODING 7921
SWIDTH 620 0
DWIDTH 6 0
BBX 6 9 1 -3
BITMAP
94
94
98
90
B0
50
00
20
20
ENDCHAR
STARTCHAR Ygrave
ENCODING 7922
SWIDTH 623 0
DWIDTH 7 0
BBX 5 10 1 0
BITMAP
40
20
00
88
88
50
20
20
20
20
ENDCHAR
STARTCHAR ygrave
ENCODING 7923
SWIDTH 568 0
DWIDTH 6 0
BBX 4 11 1 -2
BITMAP
40
20
00
90
90
90
90
60
60
40
C0
ENDCHAR
STARTCHAR uni1EF4
ENCODING 7924
SWIDTH 623 0
DWIDTH 7 0
BBX 5 10 1 -3
BITMAP
88
88
50
20
20
20
20
00
20
20
ENDCHAR
STARTCHAR uni1EF5
ENCODING 7925
SWIDTH 568 0
DWIDTH 6 0
BBX 4 11 1 -5
BITMAP
90
90
90
90
60
60
40
C0
00
40
40
ENDCHAR
STARTCHAR uni1EF8
ENCODING 7928
SWIDTH 623 0
DWIDTH 7 0
BBX 5 10 1 0
BITMAP
68
B0
00
88
88
50
20
20
20
20
ENDCHAR
STARTCHAR uni1EF9
ENCODING 7929
SWIDTH 568 0
DWIDTH 6 0
BBX 5 11 1 -2
BITMAP
68
B0
00
90
90
90
90
60
60
40
C0
ENDCHAR
STARTCHAR uni2000
ENCODING 8192
SWIDTH 500 0
DWIDTH 5 0
BBX 1 1 0 0
BITMAP
00
ENDCHAR
STARTCHAR uni2001
ENCODING 8193
SWIDTH 1000 0
DWIDTH 10 0
BBX 1 1 0 0
BITMAP
00
ENDCHAR
STARTCHAR uni2002
ENCODING 8194
SWIDTH 500 0
DWIDTH 5 0
BBX 1 1 0 0
BITMAP
00
ENDCHAR
STARTCHAR uni2003
ENCODING 8195
SWIDTH 1000 0
DWIDTH 10 0
BBX 1 1 0 0
BITMAP
00
ENDCHAR
STARTCHAR uni2004
ENCODING 8196
SWIDTH 333 0
DWIDTH 3 0
BBX 1 1 0 0
BITMAP
00
ENDCHAR
STARTCHAR uni2005
ENCODING 8197
SWIDTH 250 0
DWIDTH 3 0
BBX 1 1 0 0
BITMAP
00
ENDCHAR
STARTCHAR uni2006
ENCODING 8198
SWIDTH 167 0
DWIDTH 2 0
BBX 1 1 0 0
BITMAP
00
ENDCHAR
STARTCHAR uni2007
ENCODING 8199
SWIDTH 633 0
DWIDTH 6 0
BBX 1 1 0 0
BITMAP
00
ENDCHAR
STARTCHAR uni2008
ENCODING 8200
SWIDTH 316 0
DWIDTH 2 0
BBX 1 1 0 0
BITMAP
00
ENDCHAR
STARTCHAR uni2009
ENCODING 8201
SWIDTH 200 0
DWIDTH 2 0
BBX 1 1 0 0
BITMAP
00
ENDCHAR
STARTCHAR uni200A
ENCODING 8202
SWIDTH 100 0
DWIDTH 1 0
BBX 1 1 0 0
BITMAP
00
ENDCHAR
STARTCHAR uni200B
ENCODING 8203
SWIDTH 0 0
DWIDTH 0 0
BBX 1 1 0 0
BITMAP
00
ENDCHAR
STARTCHAR uni2010
ENCODING 8208
SWIDTH 325 0
DWIDTH 3 0
BBX 2 1 1 3
BITMAP
C0
ENDCHAR
STARTCHAR uni2011
ENCODING 8209
SWIDTH 325 0
DWIDTH 3 0
BBX 2 1 1 3
BITMAP
C0
ENDCHAR
STARTCHAR figuredash
ENCODING 8210
SWIDTH 500 0
DWIDTH 5 0
BBX 4 1 1 3
BITMAP
F0
ENDCHAR
STARTCHAR endash
ENCODING 8211
SWIDTH 500 0
DWIDTH 5 0
BBX 4 1 1 3
BITMAP
F0
ENDCHAR
STARTCHAR emdash
ENCODING 8212
SWIDTH 1000 0
DWIDTH 11 0
BBX 9 1 1 3
BITMAP
FF80
ENDCHAR
STARTCHAR afii00208
ENCODING 8213
SWIDTH 1000 0
DWIDTH 11 0
BBX 9 1 1 3
BITMAP
FF80
ENDCHAR
STARTCHAR quoteleft
ENCODING 8216
SWIDTH 229 0
DWIDTH 2 0
BBX 2 3 0 5
BITMAP
40
80
80
ENDCHAR
STARTCHAR quoteright
ENCODING 8217
SWIDTH 229 0
DWIDTH 2 0
BBX 2 3 0 5
BITMAP
40
40
80
ENDCHAR
STARTCHAR quotesinglbase
ENCODING 8218
SWIDTH 229 0
DWIDTH 3 0
BBX 2 3 0 -1
BITMAP
40
40
80
ENDCHAR
STARTCHAR quotereversed
ENCODING 8219
SWIDTH 229 0
DWIDTH 2 0
BBX 2 3 0 5
BITMAP
80
80
40
ENDCHAR
STARTCHAR quotedblleft
ENCODING 8220
SWIDTH 373 0
DWIDTH 4 0
BBX 4 3 0 5
BITMAP
50
A0
A0
ENDCHAR
STARTCHAR quotedblright
ENCODING 8221
SWIDTH 373 0
DWIDTH 4 0
BBX 4 3 0 5
BITMAP
50
50
A0
ENDCHAR
STARTCHAR quotedblbase
ENCODING 8222
SWIDTH 373 0
DWIDTH 4 0
BBX 4 3 0 -1
BITMAP
50
50
A0
ENDCHAR
STARTCHAR uni201F
ENCODING 8223
SWIDTH 373 0
DWIDTH 4 0
BBX 4 3 0 5
BITMAP
A0
A0
50
ENDCHAR
STARTCHAR dagger
ENCODING 8224
SWIDTH 633 0
DWIDTH 6 0
BBX 5 8 1 -1
BITMAP
20
20
F8
20
20
20
20
20
ENDCHAR
STARTCHAR daggerdbl
ENCODING 8225
SWIDTH 633 0
DWIDTH 6 0
BBX 5 8 1 -1
BITMAP
20
20
F8
20
20
F8
20
20
ENDCHAR
STARTCHAR bullet
ENCODING 8226
SWIDTH 633 0
DWIDTH 7 0
BBX 3 3 2 2
BITMAP
E0
E0
E0
ENDCHAR
STARTCHAR ellipsis
ENCODING 8230
SWIDTH 1000 0
DWIDTH 6 0
BBX 4 2 1 0
BITMAP
90
90
ENDCHAR
STARTCHAR perthousand
ENCODING 8240
SWIDTH 1012 0
DWIDTH 11 0
BBX 10 7 1 0
BITMAP
4200
A400
4800
1000
2480
4B40
0480
ENDCHAR
STARTCHAR guilsinglleft
ENCODING 8249
SWIDTH 331 0
DWIDTH 4 0
BBX 2 3 1 2
BITMAP
40
80
40
ENDCHAR
STARTCHAR guilsinglright
ENCODING 8250
SWIDTH 331 0
DWIDTH 4 0
BBX 2 3 1 2
BITMAP
80
40
80
ENDCHAR
STARTCHAR fraction
ENCODING 8260
SWIDTH 36 0
DWIDTH 4 0
BBX 4 7 0 0
BITMAP
10
10
20
20
40
80
80
ENDCHAR
STARTCHAR oneinferior
ENCODING 8321
SWIDTH 422 0
DWIDTH 5 0
BBX 3 5 0 -2
BITMAP
20
E0
20
20
20
ENDCHAR
STARTCHAR twoinferior
ENCODING 8322
SWIDTH 422 0
DWIDTH 5 0
BBX 4 5 1 -2
BITMAP
E0
10
60
80
F0
ENDCHAR
STARTCHAR threeinferior
ENCODING 8323
SWIDTH 422 0
DWIDTH 5 0
BBX 3 5 1 -2
BITMAP
C0
20
C0
20
C0
ENDCHAR
STARTCHAR uni20A5
ENCODING 8357
SWIDTH 934 0
DWIDTH 9 0
BBX 7 9 1 -1
BITMAP
04
04
AC
DA
92
B2
B2
D2
40
ENDCHAR
STARTCHAR uni20A6
ENCODING 8358
SWIDTH 741 0
DWIDTH 8 0
BBX 6 7 1 0
BITMAP
84
C4
FC
94
FC
8C
84
ENDCHAR
STARTCHAR uni20A9
ENCODING 8361
SWIDTH 855 0
DWIDTH 9 0
BBX 7 7 1 0
BITMAP
82
92
FE
AA
7C
44
44
ENDCHAR
STARTCHAR Euro
ENCODING 8364
SWIDTH 692 0
DWIDTH 7 0
BBX 6 7 0 0
BITMAP
1C
20
F8
40
F8
20
1C
ENDCHAR
STARTCHAR uni20AD
ENCODING 8365
SWIDTH 653 0
DWIDTH 7 0
BBX 5 7 1 0
BITMAP
88
90
A0
F8
A0
90
88
ENDCHAR
STARTCHAR uni2103
ENCODING 8451
SWIDTH 955 0
DWIDTH 10 0
BBX 9 7 0 0
BITMAP
4380
A400
4800
0800
0800
0400
0380
ENDCHAR
STARTCHAR uni2109
ENCODING 8457
SWIDTH 799 0
DWIDTH 8 0
BBX 8 7 0 0
BITMAP
4F
A8
48
0E
08
08
08
ENDCHAR
STARTCHAR trademark
ENCODING 8482
SWIDTH 807 0
DWIDTH 9 0
BBX 8 3 1 4
BITMAP
FB
55
55
ENDCHAR
STARTCHAR uni212A
ENCODING 8490
SWIDTH 653 0
DWIDTH 7 0
BBX 5 7 1 0
BITMAP
88
90
A0
C0
A0
90
88
ENDCHAR
STARTCHAR uni212B
ENCODING 8491
SWIDTH 690 0
DWIDTH 7 0
BBX 5 9 1 0
BITMAP
20
50
20
20
50
50
F8
88
88
ENDCHAR
STARTCHAR uni2132
ENCODING 8498
SWIDTH 536 0
DWIDTH 5 0
BBX 4 7 1 0
BITMAP
10
10
10
70
10
10
F0
ENDCHAR
STARTCHAR universal
ENCODING 8704
SWIDTH 690 0
DWIDTH 7 0
BBX 5 7 1 0
BITMAP
88
88
F8
50
50
20
20
ENDCHAR
STARTCHAR existential
ENCODING 8707
SWIDTH 542 0
DWIDTH 6 0
BBX 4 7 1 0
BITMAP
F0
10
10
70
10
10
F0
ENDCHAR
STARTCHAR uni2204
ENCODING 8708
SWIDTH 542 0
DWIDTH 6 0
BBX 5 9 1 -1
BITMAP
08
F8
10
10
70
50
50
F0
80
ENDCHAR
STARTCHAR minus
ENCODING 8722
SWIDTH 633 0
DWIDTH 6 0
BBX 5 1 1 3
BITMAP
F8
ENDCHAR
STARTCHAR fraction
ENCODING 8725
SWIDTH 36 0
DWIDTH 4 0
BBX 4 7 0 0
BITMAP
10
10
20
20
40
80
80
ENDCHAR
STARTCHAR periodcentered
ENCODING 8729
SWIDTH 316 0
DWIDTH 7 0
BBX 2 2 3 2
BITMAP
C0
C0
ENDCHAR
STARTCHAR uni2236
ENCODING 8758
SWIDTH 316 0
DWIDTH 2 0
BBX 1 6 1 0
BITMAP
80
80
00
00
80
80
ENDCHAR
STARTCHAR uni2259
ENCODING 8793
SWIDTH 633 0
DWIDTH 6 0
BBX 5 6 1 2
BITMAP
20
50
00
F8
00
F8
ENDCHAR
STARTCHAR uni225A
ENCODING 8794
SWIDTH 633 0
DWIDTH 6 0
BBX 5 6 1 2
BITMAP
50
20
00
F8
00
F8
ENDCHAR
STARTCHAR notequal
ENCODING 8800
SWIDTH 633 0
DWIDTH 6 0
BBX 5 9 1 -1
BITMAP
08
08
10
F8
20
F8
40
80
80
ENDCHAR
STARTCHAR equivalence
ENCODING 8801
SWIDTH 633 0
DWIDTH 6 0
BBX 5 5 0 1
BITMAP
F8
00
F8
00
F8
ENDCHAR
STARTCHAR uni2262
ENCODING 8802
SWIDTH 633 0
DWIDTH 6 0
BBX 5 9 0 -1
BITMAP
08
08
F8
10
F8
40
F8
80
80
ENDCHAR
STARTCHAR lessequal
ENCODING 8804
SWIDTH 633 0
DWIDTH 6 0
BBX 5 7 0 -1
BITMAP
18
60
80
60
18
00
F8
ENDCHAR
STARTCHAR greaterequal
ENCODING 8805
SWIDTH 633 0
DWIDTH 6 0
BBX 5 7 1 -1
BITMAP
C0
30
08
30
C0
00
F8
ENDCHAR
STARTCHAR uni226E
ENCODING 8814
SWIDTH 633 0
DWIDTH 6 0
BBX 5 9 0 -1
BITMAP
08
08
18
70
A0
60
58
80
80
ENDCHAR
STARTCHAR uni226F
ENCODING 8815
SWIDTH 633 0
DWIDTH 6 0
BBX 5 9 1 -1
BITMAP
08
08
D0
30
28
70
C0
80
80
ENDCHAR
STARTCHAR uni2270
ENCODING 8816
SWIDTH 633 0
DWIDTH 6 0
BBX 5 9 0 -2
BITMAP
08
18
70
90
60
58
40
F8
80
ENDCHAR
STARTCHAR uni2271
ENCODING 8817
SWIDTH 633 0
DWIDTH 6 0
BBX 5 9 1 -2
BITMAP
08
C8
30
18
30
C0
40
F8
80
ENDCHAR
STARTCHAR fi
ENCODING -1
SWIDTH 645 0
DWIDTH 7 0
BBX 5 8 1 0
BITMAP
38
40
F8
48
48
48
48
48
ENDCHAR
STARTCHAR fl
ENCODING -1
SWIDTH 645 0
DWIDTH 7 0
BBX 5 8 1 0
BITMAP
38
48
E8
48
48
48
48
48
ENDCHAR
ENDFONT
